<?xml version="1.0" standalone="no"?>
<!DOCTYPE svg PUBLIC "-//W3C//DTD SVG 1.1//EN" "http://www.w3.org/Graphics/SVG/1.1/DTD/svg11.dtd" >
<!--
2013-9-30: Created.
-->
<svg>
<metadata>
Created by iconfont
</metadata>
<defs>

<font id="iconfont" horiz-adv-x="1024" >
  <font-face
    font-family="iconfont"
    font-weight="500"
    font-stretch="normal"
    units-per-em="1024"
    ascent="896"
    descent="-128"
  />
    <missing-glyph />
    
    <glyph glyph-name="x" unicode="x" horiz-adv-x="1001"
d="M281 543q-27 -1 -53 -1h-83q-18 0 -36.5 -6t-32.5 -18.5t-23 -32t-9 -45.5v-76h912v41q0 16 -0.5 30t-0.5 18q0 13 -5 29t-17 29.5t-31.5 22.5t-49.5 9h-133v-97h-438v97zM955 310v-52q0 -23 0.5 -52t0.5 -58t-10.5 -47.5t-26 -30t-33 -16t-31.5 -4.5q-14 -1 -29.5 -0.5
t-29.5 0.5h-32l-45 128h-439l-44 -128h-29h-34q-20 0 -45 1q-25 0 -41 9.5t-25.5 23t-13.5 29.5t-4 30v167h911zM163 247q-12 0 -21 -8.5t-9 -21.5t9 -21.5t21 -8.5q13 0 22 8.5t9 21.5t-9 21.5t-22 8.5zM316 123q-8 -26 -14 -48q-5 -19 -10.5 -37t-7.5 -25t-3 -15t1 -14.5
t9.5 -10.5t21.5 -4h37h67h81h80h64h36q23 0 34 12t2 38q-5 13 -9.5 30.5t-9.5 34.5q-5 19 -11 39h-368zM336 498v228q0 11 2.5 23t10 21.5t20.5 15.5t34 6h188q31 0 51.5 -14.5t20.5 -52.5v-227h-327z" />
    

    
    <glyph glyph-name="xing" unicode="&#58881;" d="M516.7404 728.5965c44.5497-77.9312 97.8827-173.1206 98.5143-174.2449 11.011-19.6577 30.1588-33.4253 52.2917-37.6035 0 0 94.4849-17.762 177.0844-33.0346-59.0335-66.6428-129.6555-143.4497-130.527-144.3971-15.3582-16.7017-22.4697-39.3673-19.3867-61.8511 0.1479-1.0743 12.0144-87.9893 21.6712-167.0068-63.1928 30.5983-134.3186 65.3437-161.3554 78.5537l-4.5881 2.2465c-10.5283 5.1295-21.951 7.7108-33.3698 7.7108-11.1619 0-22.3218-2.4533-32.6632-7.374l-1.4491-0.6905c-22.9914-10.9406-100.633-47.8765-168.3759-80.0557 9.8437 79.3902 21.8401 166.2083 21.989 167.2676 3.139 22.6876-4.0854 45.5941-19.7045 62.3347-0.8904 0.9474-71.9033 77.1977-131.5313 143.5986 83.6028 15.2736 179.294 33.0346 179.294 33.0346 22.061 4.0852 41.2078 17.723 52.2748 37.2497C417.5584 555.4549 471.6131 650.7313 516.7404 728.5965M517.0372 850.224c-7.6142 0-22.8774-5.879-42.7848-43.4375-47.8905-81.6367-123.4895-214.8863-123.4895-214.8863s-138.2751-25.6586-227.4643-41.7847c-43.7342-6.8743-58.0131-44.1261-35.8232-70.3233 62.7671-72.1411 173.7615-191.2353 173.7615-191.2353s-18.1255-130.8333-28.319-220.1447c-3.3249-34.2957 15.5981-53.9354 41.9843-53.9354 8.6165 0 18.0345 2.0996 27.7254 6.4646 74.8404 35.5039 188.672 89.6632 214.4476 101.9239 25.3289-12.3706 138.0482-67.4763 212.0891-103.0561 9.5809-4.384 18.902-6.4846 27.4276-6.4846 26.0724 0 44.7725 19.6557 41.4856 54.0094-10.0856 89.4414-28.0052 220.4415-28.0052 220.4415S879.7855 407.0385 941.828 479.2925c21.9301 26.2162 7.818 63.5209-35.4125 70.4143-88.1549 16.1451-224.811 41.8396-224.811 41.8396S606.879 724.982 559.5611 806.7305c-16.7294 30.1725-29.5252 39.871-37.6401 42.5262C521.1605 849.6135 519.4886 850.224 517.0372 850.224L517.0372 850.224z"  horiz-adv-x="1000" />

    
    <glyph glyph-name="gouwuche" unicode="&#58989;" d="M335.018479-111.67470800000001c-39.605204 0-71.84935 32.244146-71.84935 71.84935s32.244146 71.84935 71.84935 71.84935c39.650364 0 71.894509-32.244146 71.894509-71.84935S374.668842-111.67470800000001 335.018479-111.67470800000001zM829.49645-111.67470800000001c-39.627784 0-71.871929 32.244146-71.871929 71.84935s32.244146 71.84935 71.871929 71.84935c39.650364 0 71.917089-32.244146 71.917089-71.84935S869.124234-111.67470800000001 829.49645-111.67470800000001zM325.896185 64.94553499999995c-51.459669 0-96.755017 40.711621-103.054818 92.668049L162.936803 579.203528 128.795943 776.57473C126.854068 792.538743 111.951312 806.651202 96.913076 806.651202L51.911268 806.651202c-20.141301 0-36.534333 16.393032-36.534333 36.534333 0 20.141301 16.415612 36.511753 36.534333 36.511753l45.001808 0c52.046748 0 97.816273-40.643881 104.183815-92.532569l34.07312-196.580904 60.152944-423.622139c1.828975-15.354355 16.122073-28.970055 30.57323-28.970055l573.710959 0c20.141301 0 36.511753-16.415612 36.511753-36.556913 0-20.118721-16.393032-36.466593-36.511753-36.466593L325.896185 64.96811500000001zM370.039956 206.205601c-19.012304 0-35.021477 14.857596-36.376273 33.869901-0.722558 9.709372 2.370893 19.147784 8.783594 26.554002 6.299802 7.361058 15.196295 11.809305 24.928247 12.531863l479.371996 35.315017c16.483352 0.13548 31.047409 12.712503 32.989283 28.586196l55.614377 318.128688c1.399956 12.170584-2.032194 24.634708-8.625535 32.131246-4.290187 4.877266-9.709372 7.361058-16.031753 7.361058L299.161544 700.683572c-20.163881 0-36.556913 16.393032-36.556913 36.534333s16.415612 36.534333 36.556913 36.534333l611.532348 0c27.32172 0 52.453186-11.357707 70.742933-31.995766 20.863859-23.528291 30.415171-56.698214 26.215303-91.042293l-55.659537-318.173848c-3.048291-24.612128-15.241455-47.372701-34.366659-64.443131-19.238104-17.07043-43.443793-26.508842-68.1914-26.599162l-476.707563-35.202117L370.039956 206.205601z"  horiz-adv-x="1024" />

    
    <glyph glyph-name="tuihuo" unicode="&#58913;" d="M722.98783 618.802724L293.763069 618.802724c-23.719214 0-42.933835-15.830547-42.933835-35.340903 0-19.511379 19.213597-35.340903 42.933835-35.340903l429.224762 0c23.697725 0 42.933835 15.8285 42.933835 35.340903C765.922688 602.972177 746.686578 618.802724 722.98783 618.802724zM581.537238 360.87635L294.930661 360.87635c-24.360827 0-44.100404-15.781428-44.100404-35.245735 0-19.466354 19.7406-35.248805 44.100404-35.248805l286.606577 0c24.360827 0 44.101427 15.782451 44.101427 35.248805C625.638665 345.094922 605.898065 360.87635 581.537238 360.87635zM571.00844-11.493518999999992L168.553369-11.493518999999992c-5.102205 0-9.253758 3.956102-9.253758 8.818853L159.299611 771.209856c0 4.850471 4.151553 8.79634 9.253758 8.79634l679.211303 0c5.102205 0 9.253758-3.945869 9.253758-8.79634l0-539.677363 51.16531 0L908.183739 771.209856c0 33.063023-27.103288 59.96165-60.419068 59.96165L168.553369 831.171506c-33.31578 0-60.419068-26.898627-60.419068-59.96165l0-773.884522c0-33.075303 27.103288-59.984163 60.419068-59.984163L571.00844-62.65882899999997 571.00844-11.493518999999992zM814.966685 65.71902699999998l73.574692 71.601758c13.539364 13.166881 13.539364 34.546817 0 47.712675-13.537318 13.189394-35.504632 13.189394-49.045019 0l-73.571622-71.589478-73.563436 71.589478c-13.560854 13.167904-35.504632 13.167904-49.045019 0-13.560854-13.189394-13.560854-34.545794 0-47.733141l73.558319-71.584362-73.558319-71.577199c-13.560854-13.18837-13.560854-34.543747 0-47.733141 13.539364-13.189394 35.484166-13.189394 49.045019 0l73.556273 71.583338 73.577762-71.604828c13.539364-13.167904 35.507702-13.167904 49.045019 0 13.539364 13.190417 13.539364 34.545794 0 47.733141L814.966685 65.71902699999998z"  horiz-adv-x="1024" />

    
    <glyph glyph-name="xuanze" unicode="&#59145;" d="M512.064 831.04C265.536 831.04 65.024 630.4639999999999 65.024 384c0-246.528 200.576-446.976 447.04-446.976 246.464 0 446.912 200.512 446.912 446.976C959.104 630.4639999999999 758.528 831.04 512.064 831.04zM512.064-20.224000000000046c-222.912 0-404.288 181.376-404.288 404.288 0 222.848 181.376 404.224 404.288 404.224 223.04 0 404.16-181.376 404.16-404.224C916.224 161.15200000000004 734.976-20.224000000000046 512.064-20.224000000000046zM792.768 596.992L422.144 226.49599999999998 231.296 417.28 203.584 389.568 422.144 171.00800000000004 449.792 198.65599999999995 820.352 569.28Z"  horiz-adv-x="1024" />

    
    <glyph glyph-name="shanchu" unicode="&#58916;" d="M623.076818 147.07698600000003c-17.597797 0-31.82073 14.222933-31.82073 31.82073L591.256088 528.973836c0 17.597797 14.222933 31.826869 31.82073 31.826869s31.826869-14.229073 31.826869-31.826869l0-350.075097C654.904711 161.29991900000005 640.675638 147.07698600000003 623.076818 147.07698600000003L623.076818 147.07698600000003zM432.131975 147.07698600000003c-17.603937 0-31.826869 14.222933-31.826869 31.82073L400.305105 528.973836c0 17.597797 14.222933 31.826869 31.826869 31.826869 17.597797 0 31.82073-14.229073 31.82073-31.826869l0-350.075097C463.952704 161.29991900000005 449.729771 147.07698600000003 432.131975 147.07698600000003L432.131975 147.07698600000003zM941.325046 688.09795l-159.124114 0 0 63.648622c0 52.639894-42.485627 95.475492-94.741781 95.475492L368.477212 847.222063c-52.633754 0-95.469352-42.835597-95.469352-95.475492l0-63.648622-159.124114 0c-17.603937 0-31.826869-14.222933-31.826869-31.826869 0-17.597797 14.222933-31.82073 31.826869-31.82073l827.441299 0c17.597797 0 31.826869 14.222933 31.826869 31.82073C973.152938 673.8750170000001 958.923866 688.09795 941.325046 688.09795L941.325046 688.09795zM336.656483 751.746572c0 17.536398 14.286378 31.826869 31.82073 31.826869l318.981938 0c17.444301 0 31.094182-13.972223 31.094182-31.826869l0-63.648622L336.656483 688.09795 336.656483 751.746572 336.656483 751.746572zM750.506069-43.87399700000003L304.892035-43.87399700000003c-52.634778 0-95.470375 42.835597-95.470375 95.475492L209.42166 529.4496730000001c0 17.569144 14.257725 31.825846 31.822776 31.825846 17.569144 0 31.825846-14.256702 31.825846-31.825846l0-477.848179c0-17.569144 14.287401-31.826869 31.822776-31.826869l445.61301 0c17.565051 0 31.822776 14.257725 31.822776 31.826869L782.328845 528.1480280000001c0 17.565051 14.228049 31.822776 31.825846 31.822776 17.59882 0 31.826869-14.257725 31.826869-31.822776l0-476.546533C845.981561-1.0384000000000242 803.140847-43.87399700000003 750.506069-43.87399700000003L750.506069-43.87399700000003z"  horiz-adv-x="1024" />

    
    <glyph glyph-name="yijian" unicode="&#58940;" d="M512.172939 828.656219c246.489904 0 446.030519-199.539592 446.030519-446.030519S758.662843-63.40481999999997 512.172939-63.40481999999997 66.142419 136.13579600000003 66.142419 382.62570000000005 265.682012 828.656219 512.172939 828.656219M512.172939 781.705907c-220.198098 0-399.079184-178.881087-399.079184-399.079184s178.881087-399.079184 399.079184-399.079184 399.079184 178.881087 399.079184 399.079184S732.371036 781.705907 512.172939 781.705907M512.172939 538.717757m-35.302017 0a34.498 34.498 0 1 1 70.604034 0 34.498 34.498 0 1 1-70.604034 0ZM535.647583 193.633325c0-12.815887-10.389628-23.205515-23.205515-23.205515l-0.539282 0c-12.815887 0-23.205515 10.389628-23.205515 23.205515L488.697271 381.974877c0 12.815887 10.389628 23.205515 23.205515 23.205515l0.539282 0c12.815887 0 23.205515-10.389628 23.205515-23.205515L535.647583 193.633325z"  horiz-adv-x="1024" />

    
    <glyph glyph-name="xiangshang" unicode="&#59419;" d="M822.592 217.642667c12.544 12.629333 12.544 33.130667 0 45.76L536.384 550.613333c-6.698667 6.741333-15.573333 9.6-24.384 9.173333-8.768 0.448-17.664-2.410667-24.384-9.173333L201.429333 263.402667c-12.565333-12.629333-12.565333-33.130667 0-45.76s32.981333-12.629333 45.546667 0L512 483.648l265.045333-266.005333C789.632 205.013333 810.005333 205.013333 822.592 217.642667z"  horiz-adv-x="1024" />

    
    <glyph glyph-name="daifukuan" unicode="&#58971;" d="M991.64097354 159.56825756C976.98290293 159.56825756 965.15420293 147.73423402000003 965.08852578 133.27673774000004L965.08852578 133.07615901999998 965.08852578 132.94658188000005 965.08852578 132.88090911999996 965.08852578-2.121399760000031C965.08852578-31.501445370000056 941.16487432-55.42687397999998 911.78482871-55.42687397999998L402.20468018-55.426869590000024 402.0733294-55.426869590000024 168.61094492-55.426869590000024C139.10132128-55.426869590000024 115.24156982-31.567122519999998 115.24156982-2.121399760000031L115.24156982 684.72238842C115.24156982 714.23201206 139.10132128 738.09175912 168.61094492 738.09175912L911.71915508 738.09175912C941.09920068 738.09175912 965.08852578 714.23201206 965.08852578 684.72238842L965.08852578 541.83191352 965.08852578 541.70233549C965.08852578 526.97858774 976.98289854 515.07889144 991.64097354 515.07889144 1006.42862129 515.07889144 1018.26264482 526.97858774 1018.26264482 541.70233549L1018.26264482 541.83191352 1018.26264482 690.1131098C1018.26264482 746.04560316 973.04236543 791.33333334 916.97319776 791.33333334L163.22022354 791.33333334C107.28773018 791.33333334 62 746.04560316 62 690.1131098L62-7.382543120000037C62-63.44638726000005 107.28595215-108.66666666000003 163.22022354-108.66666666000003L916.97497578-108.66666666000003C973.04236982-108.66666666000003 1018.26442285-63.44638726000005 1018.26442285-7.382543120000037L1018.26442285 133.27496057999997C1018.19874922 147.79813402000002 1006.29904854 159.56825756 991.64097354 159.56825756L991.64097354 159.56825756 991.64097354 159.56825756 991.64097354 159.56825756ZM1010.96733535 477.35627298L622.85145664 477.35627298C570.39798974 477.35627298 527.81005742 437.32968705 522.55069121 386.32285766 521.95960742 385.4051767 521.5673331 384.02421196 521.49810518 381.65989437999997L521.49810518 297.26503548999995C521.49810518 241.39644212999997 566.78406172 196.11048558000005 622.8532294 196.11048558000005L1011.03478965 196.11048558000005C1066.96906104 196.11048558000005 1112.18934043 241.39644212999997 1112.18934043 297.26503548999995L1112.18934043 368.31533334000005 1112.18934043 368.44668412 1112.18934043 376.13960024000005C1112.18578526 432.00287006 1066.89982872 477.35627298 1010.96733535 477.35627298L1010.96733535 477.35627298 1010.96733535 477.35627298 1010.96733535 477.35627298ZM1058.94776622 302.65398412C1058.94776622 273.33783852 1035.02234112 249.34850902000005 1005.57661836 249.34850902000005L664.78263242 249.34850902000005 664.78263242 249.34850902000005 628.17117646 249.34850902000005C598.66155372 249.34850902000005 574.80180224 273.27393412000004 574.80180224 302.65398412L574.80180224 370.8110061C574.80180224 400.1910517 598.59587568 424.11647592 628.17117646 424.11647592L1005.57661836 424.11647592C1034.95666396 424.11647592 1058.94776622 400.1910517 1058.94776622 370.8110061L1058.94776622 302.65398412 1058.94776622 302.65398412 1058.94776622 302.65398412 1058.94776622 302.65398412ZM975.27888828 369.82764798000005C957.26603604 369.82764798000005 942.67363818 355.23525101999996 942.67363818 337.28807152 942.67363818 319.34622084 957.26781318 304.82305092 975.27888828 304.82305092 993.22073896 304.82305092 1007.81313682 319.34622084 1007.81313682 337.28807152 1007.81313682 355.23525101999996 993.22073896 369.82764798000005 975.27888828 369.82764798000005L975.27888828 369.82764798000005 975.27888828 369.82764798000005 975.27888828 369.82764798000005Z"  horiz-adv-x="1229" />

    
    <glyph glyph-name="111" unicode="&#59028;" d="M934.965709 677.859771c0-16.954137-13.745049-30.699186-30.699186-30.699186l-589.42437 0c-16.954137 0-30.699186 13.745049-30.699186 30.699186l0 0c0 16.954137 13.745049 30.699186 30.699186 30.699186l589.42437 0C921.22066 708.558957 934.965709 694.813908 934.965709 677.859771L934.965709 677.859771zM222.744595 677.859771c0-16.954137-13.745049-30.699186-30.699186-30.699186l-73.678046 0c-16.954137 0-30.699186 13.745049-30.699186 30.699186l0 0c0 16.954137 13.745049 30.699186 30.699186 30.699186l73.678046 0C208.999546 708.558957 222.744595 694.813908 222.744595 677.859771L222.744595 677.859771zM934.965709 384c0-16.954137-13.745049-30.699186-30.699186-30.699186l-589.42437 0c-16.954137 0-30.699186 13.745049-30.699186 30.699186l0 0c0 16.954137 13.745049 30.699186 30.699186 30.699186l589.42437 0C921.22066 414.699186 934.965709 400.954137 934.965709 384L934.965709 384zM222.744595 384c0-16.954137-13.745049-30.699186-30.699186-30.699186l-73.678046 0c-16.954137 0-30.699186 13.745049-30.699186 30.699186l0 0c0 16.954137 13.745049 30.699186 30.699186 30.699186l73.678046 0C208.999546 414.699186 222.744595 400.954137 222.744595 384L222.744595 384zM934.965709 90.14022899999998c0-16.954137-13.745049-30.699186-30.699186-30.699186l-589.42437 0c-16.954137 0-30.699186 13.745049-30.699186 30.699186l0 0c0 16.954137 13.745049 30.699186 30.699186 30.699186l589.42437 0C921.22066 120.83941500000003 934.965709 107.09436600000004 934.965709 90.14022899999998L934.965709 90.14022899999998zM222.744595 90.14022899999998c0-16.954137-13.745049-30.699186-30.699186-30.699186l-73.678046 0c-16.954137 0-30.699186 13.745049-30.699186 30.699186l0 0c0 16.954137 13.745049 30.699186 30.699186 30.699186l73.678046 0C208.999546 120.83941500000003 222.744595 107.09436600000004 222.744595 90.14022899999998L222.744595 90.14022899999998z"  horiz-adv-x="1024" />

    
    <glyph glyph-name="wode" unicode="&#58990;" d="M960.053977-128l-0.938726 7.791427C933.074988 95.116424 732.506765 270.320267 512 270.320267c-220.506765 0-421.074988-175.185068-447.096476-390.52884l-0.938726-7.791427L5.087896-128l1.051373 9.819075C26.509626 71.68582 159.395695 242.815592 336.814932 307.606468l5.407062 1.990099-4.843827 3.116571c-90.699718 58.332441-144.84544 155.509369-144.84544 259.989586C192.532727 744.921418 341.827729 896 512 896c170.191045 0 319.467273-151.078582 319.467273-323.334825 0-104.461443-54.145723-201.63837-144.84544-259.989586l-4.843827-3.116571 5.407062-1.990099c177.419237-64.809651 310.305306-235.920648 330.675663-425.787393L1018.912104-128 960.053977-128zM512 836.353342c-131.515529 0-260.590371-130.614352-260.590371-263.669392 0-138.912691 137.5797-242.717025 260.590371-242.717025 123.010671 0 260.590371 103.78556 260.590371 242.717025C772.590371 705.73899 643.515529 836.353342 512 836.353342z"  horiz-adv-x="1024" />

    
    <glyph glyph-name="bianji" unicode="&#58889;" d="M789.05606-63.696462L199.328791-63.696462c-45.871747 0-83.071997 37.20025-83.071997 83.071997L116.256794 698.943972c0 38.823214 31.494295 70.317509 70.317509 70.317509L660.896168 769.261481c17.732873 0 32.054043-4.699022 32.054043-22.376637s-14.32117-22.376637-32.054043-22.376637L180.029236 724.508207c-10.461259 0-19.020192-8.558933-19.020192-18.96391l0-690.476881c0-23.103184 6.377244-34.011628 34.347273-34.011628l593.69872 0c51.353598 0 51.353598 26.795273 51.353598 44.472887L840.408635 544.9947179999999c0 17.677615 4.64274 30.432103 22.376637 30.432103 17.677615 0 22.376637-12.754488 22.376637-30.432103l0-531.884886C885.161908-39.92096600000002 842.031599-63.696462 789.05606-63.696462M600.815815 448.888869c-15.160281 0-30.375821 10.796904-33.172517 32.165584-0.839111 6.656607 1.5104 13.482059 6.265704 18.23634L896.573819 821.957657c12.530384 12.530384 32.781614 12.530384 45.311998 0 12.530384-12.530384 12.530384-32.781614 0-45.311998L623.471814 458.286913C617.262392 452.02121 609.039103 448.888869 600.815815 448.888869M468.683449 448.888869L276.470729 448.888869c-17.677615 0-32.054043 4.251837-32.054043 21.928429 0 17.732873 14.376429 22.655999 32.054043 22.655999l192.21272 0c17.677615 0 32.054043-4.923126 32.054043-22.655999C500.737492 453.140707 486.361063 448.888869 468.683449 448.888869M660.896168 256.67615L276.470729 256.67615c-17.677615 0-32.054043 4.64274-32.054043 22.376637 0 17.732873 14.376429 22.376637 32.054043 22.376637L660.896168 301.42942300000004c17.732873 0 30.655184-4.978385 30.655184-22.712281C691.551352 260.98426900000004 678.629042 256.67615 660.896168 256.67615"  horiz-adv-x="1024" />

    
    <glyph glyph-name="zhengpin-copy" unicode="&#58882;" d="M900.894 720.231c-45.631-30.882-144.043-22.954-188.268-6.761-77.492 28.372-144.811 109.69-190.461 141.443-45.65-31.755-108.055-104.886-190.46-141.443-42.572-18.886-140.627-24.69-186.215 5.402-19.634-42.06-20.42-188.667-8.634-250.112 49.682-259.01 316.547-565.115 386.653-565.115 67.42 0 335.921 309.379 386.653 565.115 12.242 61.709 10.77 209.137-9.268 251.471zM722.393 204.288h-405.911v40.932h61.398v214.894h47.755v-214.894h92.097v271.175h-182.491v44.343h373.507v-44.343h-141.558v-105.742h126.208v-44.343h-126.208v-121.092h155.202v-40.931z"  horiz-adv-x="1024" />

    
    <glyph glyph-name="fabu" unicode="&#58957;" d="M714.600301 827.796642c0-20.018939 0-39.172161 0-59.19417-2.419096 0-4.745071 0-7.070023 0-169.390945 0-338.78189-0.050142-508.172835 0.048095-29.212322 0.017396-51.525514-12.31549-67.423599-36.434817-7.592932-11.519358-11.323906-24.555256-11.33107-38.296211-0.097214-209.039967-0.267083-418.079934 0.163729-627.117854 0.059352-28.894074 14.793938-50.626028 40.015366-64.959477 12.43317-7.065929 25.942859-9.487072 40.08495-9.485025 206.619848 0.027629 413.239695-0.154519 619.85852 0.180102 37.045731 0.060375 67.130933 25.327852 74.782194 62.732763 1.023306 5.003967 1.203408 10.249435 1.204431 15.382339 0.059352 170.135912 0.049119 340.2708 0.049119 510.406712 0 2.376117 0 4.752234 0 7.424086 19.393699 0 38.306444 0 58.077743 0 0-1.873674 0-3.827165 0-5.780657 0-175.161369 0.078795-350.322737-0.147356-525.484106-0.01842-14.274098-4.307096-27.964912-9.79611-41.243333-7.7935-18.851347-19.431561-34.948977-34.538631-48.378847-18.041912-16.038278-38.997176-26.810622-62.922075-30.955013-8.647961-1.49812-17.537422-2.24411-26.316366-2.249227-211.459063-0.12075-422.919149-0.192382-634.378212 0.069585-19.569708 0.024559-37.82856 6.499018-55.109132 15.908318-13.096273 7.130398-24.586978 16.118096-34.545794 27.02654-16.70752 18.298761-28.145014 39.469943-32.270984 64.065108-1.543146 9.201569-2.255367 18.650779-2.260483 27.987425-0.122797 208.479195-0.038886 416.959414-0.163729 625.438609-0.01535 26.238594 7.110955 50.170656 21.462824 71.878051 19.763113 29.891797 47.455825 49.004087 82.194 57.317427 10.428513 2.495844 21.442358 3.548826 32.190143 3.562129 169.948647 0.213871 339.898317 0.150426 509.847987 0.150426C710.09366 827.796642 712.103434 827.796642 714.600301 827.796642zM487.61359 326.322369c-12.763698-1.51347-23.784706 8.483208-26.856671 17.791202-3.846608 11.655458-2.439562 22.397103 6.635117 31.423687 3.035126 3.018753 6.069229 6.03853 9.082866 9.078773 39.393195 39.757492 78.794577 79.505775 118.167307 119.28271 32.695656 33.030277 65.354474 66.097394 98.031711 99.146091 32.80822 33.181727 65.617463 66.360384 98.426707 99.541087 33.07121 33.444716 66.132186 66.898643 99.218746 100.326986 8.30106 8.387018 16.07921 17.433044 25.166169 24.871457 14.545274 11.905144 39.058574 5.389754 44.849464-15.042601 3.207042-11.31572 0.317225-21.079084-8.135284-29.565363-33.716916-33.851992-67.255777-67.881017-100.841709-101.863992-29.268604-29.613458-58.494229-59.270918-87.771019-88.875167-36.604686-37.014009-73.253374-73.986061-109.865223-110.992907-32.29452-32.642444-64.596204-65.276702-96.834442-97.974405-15.643282-15.866363-31.196513-31.82073-46.691415-47.831378C503.966023 329.19990600000006 496.680083 325.697129 487.61359 326.322369z"  horiz-adv-x="1024" />

    
    <glyph glyph-name="Warning-copy" unicode="&#58883;" d="M512-128C229.233778-128 0 101.23377800000003 0 384 0 666.766222 229.233778 896 512 896 794.766222 896 1024 666.766222 1024 384 1024 101.23377800000003 794.766222-128 512-128ZM512 839.111111C260.636444 839.111111 56.888889 635.363556 56.888889 384 56.888889 132.66488900000002 260.636444-71.11111100000005 512-71.11111100000005 763.335111-71.11111100000005 967.111111 132.66488900000002 967.111111 384 967.111111 635.363556 763.335111 839.111111 512 839.111111ZM483.555556 156.44444399999998L540.444444 156.44444399999998 540.444444 71.11111100000005 483.555556 71.11111100000005 483.555556 156.44444399999998ZM483.555556 696.8888890000001L540.444444 696.8888890000001 540.444444 213.33333300000004 483.555556 213.33333300000004 483.555556 696.8888890000001Z"  horiz-adv-x="1024" />

    
    <glyph glyph-name="xuanze1" unicode="&#58929;" d="M937.656525 654.878792C848.13911 798.122788 688.752742 893.446446 507.030784 893.446446 227.00631 893.446446 0 667.075133 0 387.832479 0 285.449667 30.51607 190.180429 82.97129 110.56335899999999 172.488704-32.67490799999996 331.876557-128 513.594163-128 793.617254-128 1020.623514 98.36558300000002 1020.623514 377.61109999999996 1020.623514 479.99105 990.108928 575.2674460000001 937.656525 654.878792M823.959501 472.605358C794.276454 444.13673 584.360755 241.85447899999997 485.937562 135.528909 450.347469 97.07663400000001 418.33344 135.528909 418.33344 135.528909 418.33344 135.528909 235.90057 317.451459 221.675162 331.63707899999997 192.231936 364.81324500000005 238.138163 420.828196 283.577651 371.03745000000004 353.478195 301.325245 452.136909 202.94391299999995 452.136909 202.94391299999995L779.414784 529.3134749999999C809.902131 558.6342500000001 864.123853 511.124946 823.959501 472.605358"  horiz-adv-x="1024" />

    
    <glyph glyph-name="daifahuo" unicode="&#58927;" d="M907.63776 802.90816H116.36224C52.36224 802.90816 0 750.54592 0 686.54592v-605.09184c0-64 52.36224-116.36224 116.36224-116.36224h791.2704c64 0 116.36224 52.36224 116.36224 116.36224V686.54592c0.00512 64-52.35712 116.36224-116.35712 116.36224z m-493.38368-46.54592h195.49184v-420.53632l-73.77408 39.33184a50.88256 50.88256 0 0 1-23.97184 6.05184 50.20672 50.20672 0 0 1-23.97184-6.05184l-73.77408-39.33184V756.36224zM46.54592 686.54592c0 38.4 31.41632 69.81632 69.81632 69.81632h251.34592v-189.44H46.54592V686.54592z m930.90816-605.09184c0-38.4-31.41632-69.81632-69.81632-69.81632H116.36224c-38.4 0-69.81632 31.41632-69.81632 69.81632V520.3763200000001h321.16224v-223.18592c0-13.49632 11.17184-23.2704 23.2704-23.2704 3.72224 0 7.4496 0.93184 10.93632 2.7904l107.98592 57.48224c0.69632 0.46592 1.39776 0.46592 2.09408 0.46592s1.39776-0.2304 2.09408-0.46592l107.98592-57.48224a23.1424 23.1424 0 0 1 10.93632-2.7904c12.10368 0 23.2704 9.77408 23.2704 23.2704V756.36224h251.34592c38.4 0 69.81632-31.41632 69.81632-69.81632v-605.09184zM253.6704 407.97184H160.58368a23.33696 23.33696 0 0 1-23.2704-23.2704c0-12.8 10.4704-23.2704 23.2704-23.2704h93.09184c12.8 0 23.2704 10.4704 23.2704 23.2704a23.3472 23.3472 0 0 1-23.27552 23.2704z"  horiz-adv-x="1024" />

    
    <glyph glyph-name="shaixuan" unicode="&#58900;" d="M641.369689-128c-21.171442 0-26.283516 17.604737-26.283516 39.385951L615.086172 502.179302c0 9.768607 3.522786 19.179725 9.876874 26.38872L892.967483 842.960062l-742.807332-0.16853 250.294496-314.420639c6.238671-7.208995 9.684852-16.542488 9.684852-26.232447l0-355.421413 60.83317-50.649878c16.46384-13.706078 43.786114-39.280748 30.46408-56.176637-13.319991-16.898954-36.602654-18.695585-53.022574-5.02832l-75.036666 62.466378c-8.995412 7.441872-14.202475 18.746655-14.202475 30.601968L359.175033 487.172991 61.750381 830.385688C51.722341 841.964203 49.232183 858.545504 55.396293 872.725509c6.164109 14.139149 19.868144 23.275513 34.952082 23.275513l845.028384 0c15.157478 0 28.864578-9.175177 34.989874-23.392973 6.123253-14.22086 3.558535-30.839952-6.583902-42.380677L666.052682 487.05553l0-575.669579C666.052682-110.39424199999996 662.541131-128 641.369689-128L641.369689-128z"  horiz-adv-x="1024" />

    
    <glyph glyph-name="zhuanfa" unicode="&#58923;" d="M957.706131 375.23435900000004c-0.044002 16.431228-13.363356 29.707602-29.780257 29.707602-0.028653 0-0.058328 0-0.072655 0-16.460904-0.044002-29.751604-13.407358-29.707602-29.852912l1.512447-375.485837c-0.39295-0.552585-3.111874-2.7486-8.303106-2.7486L132.646066-3.145387000000028c-4.91494 0-7.619538 2.006703-7.794523 0.843204L124.851543 375.161704c0 16.446577-13.334703 29.780257-29.780257 29.780257s-29.780257-13.334703-29.780257-29.780257L65.291029-2.476144999999974c0-33.212426 30.217209-60.229756 67.355037-60.229756l758.707868 0c37.138852 0 67.355037 27.01733 67.355037 60.302411L957.706131 375.23435900000004zM332.792479 594.459293c7.619538 0 15.239076 2.908236 21.055548 8.724709L482.829634 732.165608l0-495.321132c0-16.446577 13.334703-29.780257 29.780257-29.780257 16.446577 0 29.780257 13.334703 29.780257 29.780257L542.390147 730.94071 670.136623 603.185025c5.816472-5.816472 13.43601-8.724709 21.055548-8.724709s15.239076 2.908236 21.055548 8.724709c11.632945 11.632945 11.632945 30.478152 0 42.11212L535.570835 821.987333c-6.457062 6.457062-15.136745 9.324366-23.571858 8.613168-8.435113 0.711198-17.113773-2.155083-23.571858-8.613168L311.73693 645.296121c-11.632945-11.632945-11.632945-30.478152 0-42.11212C317.553403 597.367529 325.172941 594.459293 332.792479 594.459293z"  horiz-adv-x="1024" />

    
    <glyph glyph-name="daishouhuo" unicode="&#59003;" d="M950.549504 829.769728L376.129536 829.769728c-40.475648 0-73.450496-31.478784-73.450496-70.127616L302.67904 643.49184c0-1.912832-0.873472-3.448832-2.620416-4.28032L97.324032 537.125888C40.100864 508.368896 2.699264 451.976192 2.699264 390.07744l0-351.674368L156.25216 38.40307199999995c0-0.126976 0-0.126976 0-0.188416l1.371136 0c13.630464-58.365952 67.862528-102.084608 132.898816-102.084608 65.057792 0 119.268352 43.718656 132.898816 102.084608l1.70496 0c0.04096 0.06144 0.04096 0.06144 0.04096 0.188416l172.4416 0c0-0.126976 0-0.126976 0-0.188416l6.211584 0c13.712384-58.365952 67.861504-102.084608 132.980736-102.084608 65.1008 0 119.394304 43.759616 132.939776 102.273024L1024 38.40307199999995 1024 759.642112C1024 798.290944 991.003648 829.769728 950.549504 829.769728zM290.522112-2.8016639999999597c-40.082432 0-72.682496 31.230976-72.682496 69.628928 0 38.398976 32.600064 69.648384 72.682496 69.648384 40.100864 0 72.725504-31.249408 72.725504-69.648384C363.247616 28.42931199999998 330.624-2.8016639999999597 290.522112-2.8016639999999597zM736.800768-2.8016639999999597c-40.100864 0-72.725504 31.230976-72.725504 69.628928 0 38.398976 32.62464 69.648384 72.725504 69.648384 40.062976 0 72.68352-31.249408 72.68352-69.648384C809.485312 28.42931199999998 776.863744-2.8016639999999597 736.800768-2.8016639999999597zM960.25088 99.44883200000004l-91.881472 0c-15.166464 56.288256-68.088832 98.09408-131.56864 98.09408-63.582208 0-116.544512-41.805824-131.733504-98.09408L422.17472 99.44883200000004c-15.167488 56.288256-68.09088 98.09408-131.651584 98.09408-63.541248 0-116.442112-41.805824-131.65056-98.09408L66.44736 99.44883200000004 66.44736 390.07744c0 38.586368 23.209984 74.17856 60.54912 93.02528l201.571328 101.482496c23.416832 11.157504 37.8368 33.743872 37.8368 58.906624L366.404608 759.642112c0 4.903936 4.488192 9.080832 9.724928 9.080832l574.420992 0c5.214208 0 9.701376-4.176896 9.701376-9.080832L960.251904 99.44883200000004zM353.272832 525.2618239999999c-17.618944 0-31.873024-13.650944-31.873024-30.544896l0-152.639488L162.049024 342.07744c-17.599488 0-31.853568-13.650944-31.853568-30.522368 0-16.873472 14.25408-30.544896 31.853568-30.544896l191.222784 0c17.620992 0 31.874048 13.672448 31.874048 30.544896L385.145856 494.716928C385.14688 511.61088 370.8928 525.2618239999999 353.272832 525.2618239999999z"  horiz-adv-x="1024" />

    
    <glyph glyph-name="menu" unicode="&#58903;" d="M960 640c0-35.328-28.672-64-64-64h-768c-35.328 0-64 28.672-64 64s28.672 64 64 64h768c35.328 0 64-28.672 64-64zM704 384c0-35.328-28.672-64-64-64h-512c-35.328 0-64 28.672-64 64s28.672 64 64 64h512c35.328 0 64-28.672 64-64zM512 128c0-35.328-28.672-64-64-64h-320c-35.328 0-64 28.672-64 64s28.672 64 64 64h320c35.328 0 64-28.672 64-64z"  horiz-adv-x="1024" />

    
    <glyph glyph-name="fahuo" unicode="&#58892;" d="M93.866667 673.50528h575.71328a18.37056 18.37056 0 0 0 18.377386-18.35008v-53.828267c-0.191147-0.86016-0.525653-1.693013-0.525653-2.60096V250.33386700000005h-17.851733v-1.440427H93.866667v1.440427h-18.35008V655.162027a18.343253 18.343253 0 0 0 18.35008 18.343253zM262.826667 426.714453h119.41888v-77.57824l147.060053 114.93376-147.060053 114.93376v-71.830186H262.826667v-80.459094zM712.485547 154.118827c10.478933 27.231573 32.91136 48.61952 60.90752 57.521493a96.494933 96.494933 0 0 0 58.545493 0c28.002987-8.901973 50.428587-30.28992 60.90752-57.521493 2.2528-5.870933 3.925333-12.014933 4.99712-18.356907 0.887467-5.24288 1.447253-10.60864 1.447253-16.0768 0-0.771413-0.095573-1.508693-0.109226-2.2528-1.215147-52.189867-43.977387-94.3104-96.529067-94.3104s-95.29344 42.12736-96.529067 94.3104c0 0.73728-0.109227 1.481387-0.109226 2.2528 0 5.474987 0.559787 10.840747 1.460906 16.0768 1.071787 6.341973 2.7648 12.479147 5.010774 18.356907z m49.923413-36.693334c1.221973-21.244587 18.69824-38.181547 40.250027-38.181546s39.062187 16.930133 40.250026 38.181546c0.068267 0.744107 0.24576 1.460907 0.24576 2.2528 0 5.700267-1.235627 11.12064-3.39968 16.0768a40.618667 40.618667 0 0 1-16.19968 18.356907 40.236373 40.236373 0 0 1-20.896426 5.986987c-7.65952 0-14.772907-2.286933-20.903254-5.986987a40.891733 40.891733 0 0 1-16.165546-18.356907 40.09984 40.09984 0 0 1-3.39968-16.0768c0.006827-0.791893 0.18432-1.508693 0.218453-2.2528zM369.33632 211.63349300000004a122.2656 122.2656 0 0 1-20.54144 14.240427h350.890667c2.921813 0 5.5296 1.16736 7.625386 2.88768-0.02048 0.43008-0.129707 0.805547-0.129706 1.235627h1.51552a12.0832 12.0832 0 0 1 3.229013 8.096426V539.93472a18.18624 18.18624 0 0 0 13.626027 6.178133h147.715413c4.03456 0 7.939413-1.324373 11.1616-3.781973 2.99008-2.286933 73.004373-57.09824 73.004373-163.1232v-137.07264a18.363733 18.363733 0 0 0 4.696747-12.137813v-94.242134a18.343253 18.343253 0 0 0-18.363733-18.336426h-20.104534c0.034133 0.744107 0.129707 1.488213 0.129707 2.259626 0 5.454507-0.47104 10.79296-1.215147 16.069974a119.68512 119.68512 0 0 1-3.843413 18.356906 121.32352 121.32352 0 0 1-37.573973 57.52832 120.804693 120.804693 0 0 1-29.033814 18.356907 119.835307 119.835307 0 0 1-49.4592 10.663253 119.1936 119.1936 0 0 1-24.692053-2.566826 121.125547 121.125547 0 0 1-24.773973-8.096427 121.719467 121.719467 0 0 1-28.890454-18.220373c0.436907-0.034133 0.83968-0.14336 1.24928-0.14336h-1.37216a121.227947 121.227947 0 0 1-37.573973-57.52832 118.101333 118.101333 0 0 1-3.857067-18.356907 119.11168 119.11168 0 0 1-1.215146-16.069973c0-0.771413 0.088747-1.51552 0.109226-2.259627H411.8528c0.034133 0.744107 0.129707 1.488213 0.129707 2.259627 0 5.454507-0.484693 10.79296-1.221974 16.069973a119.691947 119.691947 0 0 1-3.85024 18.356907 121.01632 121.01632 0 0 1-37.573973 57.535146z m374.586027 190.42304h175.363413c-7.113387 60.224853-40.584533 96.160427-52.804267 107.362987h-122.55232v-107.362987zM200.676693 154.118827c10.48576 27.231573 32.918187 48.61952 60.914347 57.521493a96.406187 96.406187 0 0 0 58.525013 0 96.99328 96.99328 0 0 0 60.90752-57.521493c2.266453-5.870933 3.95264-12.014933 5.003947-18.356907 0.914773-5.24288 1.460907-10.60864 1.460907-16.0768 0-0.771413-0.08192-1.508693-0.1024-2.2528-1.215147-52.189867-43.984213-94.3104-96.535894-94.3104-52.538027 0-95.29344 42.12736-96.529066 94.3104-0.02048 0.73728-0.1024 1.481387-0.1024 2.2528 0 5.474987 0.559787 10.840747 1.460906 16.0768 1.08544 6.341973 2.771627 12.479147 4.99712 18.356907z m49.937067-36.693334c1.18784-21.244587 18.711893-38.181547 40.250027-38.181546 21.558613 0 39.062187 16.930133 40.250026 38.181546 0.034133 0.744107 0.2048 1.460907 0.2048 2.2528 0 5.700267-1.221973 11.12064-3.365546 16.0768a40.843947 40.843947 0 0 1-16.192854 18.356907c-6.12352 3.700053-13.223253 5.986987-20.896426 5.986987s-14.759253-2.286933-20.882774-5.986987a40.625493 40.625493 0 0 1-16.206506-18.356907 40.093013 40.093013 0 0 1-3.392854-16.0768c0-0.791893 0.191147-1.508693 0.232107-2.2528zM242.578773 230.55018700000005c-0.4096-0.16384-0.77824-0.395947-1.201493-0.55296-2.853547-1.297067-5.707093-2.60096-8.444587-4.11648a122.374827 122.374827 0 0 1-20.534613-14.247254 121.070933 121.070933 0 0 1-37.5808-57.521493 118.299307 118.299307 0 0 1-3.87072-18.356907 120.34048 120.34048 0 0 1-1.221973-16.0768c0-0.771413 0.136533-1.508693 0.136533-2.2528h-38.734507a18.3296 18.3296 0 0 0-18.35008 18.336427V229.99722699999995c0 0.177493 0.054613 0.375467 0.054614 0.55296h129.747626z"  horiz-adv-x="1024" />

    
    <glyph glyph-name="dizhi1" unicode="&#58910;" d="M506.526849 44.359946000000036l16.375136-15.267211 16.18679 15.472177c12.054228 11.522424 295.33412 285.23538 295.334119 540.335191 0 171.545621-139.836797 311.105437-311.725875 311.105437C350.82456 896 210.998842 756.445724 210.998842 584.8945630000001c0-261.968948 283.45716-529.278096 295.528007-540.534617m16.17017 804.3538c145.769738 0 264.356527-118.348585 264.356527-263.819183 0-201.564858-204.739064-428.030338-264.550414-489.874731C462.531133 155.74522000000002 258.37927 377.69590500000004 258.37927 584.8945630000001c-0.00554 145.470598 118.57017 263.819183 264.317749 263.819183m147.619973-253.975266c0 81.233086-66.220698 147.315293-147.625512 147.315293-81.377117 0-147.581196-66.082207-147.581196-147.315293 0-81.227547 66.204079-147.315293 147.581196-147.315294 81.404815 0.00554 147.625513 66.093286 147.625512 147.315294m-247.83736 0c0 55.163603 44.948531 100.034579 100.206308 100.034579 55.279935 0 100.250625-44.870976 100.250625-100.034579 0-55.158063-44.976229-100.02904-100.250625-100.02904-55.257777 0.00554-100.206308 44.876516-100.206308 100.02904m622.925486-561.612897c0-105.784712-262.955001-161.125583-522.708099-161.125583-259.736478 0-522.68594 55.340871-522.68594 161.125583 0 93.868975 202.550912 133.006438 289.639384 145.470598 12.923949 1.794839 24.950479-7.1295 26.800714-20.047909a23.654206 23.654206 0 0 0-20.086687-26.756398c-181.378458-25.958691-248.978523-74.286394-248.978523-98.666291 0-46.427612 185.162023-113.844869 475.305513-113.844869 290.171187 0 475.33875 67.417257 475.33875 113.844869 0 24.568245-68.248201 73.16185-251.3938 99.009748a23.654206 23.654206 0 0 0-20.147623 26.71208c1.839156 12.929489 13.871225 21.837209 26.767476 20.103306 87.847401-12.403224 292.148834-51.424355 292.148835-145.825134"  horiz-adv-x="1045" />

    
    <glyph glyph-name="shouye2" unicode="&#58884;" d="M983.84 366.00800000000004l-455.7 455.7c-8.9 8.9-23.3 8.9-32.2 0l-341.5-341.5c-0.2-0.2-0.4-0.4-0.6-0.6L40.14 366.00800000000004c-8.9-8.9-8.9-23.3 0-32.2 8.9-8.9 23.3-8.9 32.2 0l75 75 0-377.9c0-50.3 40.9-91.1 91.1-91.1l159.5 0c12.6 0 22.8 10.2 22.8 22.8l0 205.1 205.1 0c12.6 0 22.8 10.2 22.8 22.8s-10.2 22.8-22.8 22.8l-227.9 0c-12.6 0-22.8-10.2-22.8-22.8l0-205.1-136.7 0c-25.1 0-45.6 20.4-45.6 45.6l0 423.5 319 319L951.64 333.808c4.5-4.5 10.3-6.7 16.1-6.7 5.8 0 11.7 2.2 16.1 6.7C992.74 342.70799999999997 992.74 357.10799999999995 983.84 366.00800000000004zM853.84 304.308c-12.6 0-22.8-10.2-22.8-22.8l0-250.7c0-25.1-20.4-45.6-45.6-45.6l-159.5 0c-12.6 0-22.8-10.2-22.8-22.8 0-12.6 10.2-22.8 22.8-22.8l159.5 0c50.3 0 91.1 40.9 91.1 91.1l0 250.7C876.64 294.10799999999995 866.44 304.308 853.84 304.308z"  horiz-adv-x="1024" />

    
    <glyph glyph-name="kefu1" unicode="&#58995;" d="M862-34.200000000000045C846.7 100 755.4 211 632 254.79999999999995c76.1 41.4 127.8 122.1 127.8 214.9 0 135-109.5 244.5-244.5 244.5S270.8 604.7 270.8 469.7c0-92.8 51.7-173.5 127.8-214.9-121.2-43-211.3-150.9-228.9-281.9-1.3-3-2.2-6.3-2.2-9.8l0.2-2.3c0-8.4 4.3-15.8 10.8-20.2 2.7-2.5 6.2-4 10.1-4h1.7c0.5 0 1.1-0.1 1.6-0.1s1.1 0 1.6 0.1h644.2c0.5 0 1.1-0.1 1.6-0.1 13 0 23.5 10.5 23.5 23.5l-0.2 2.2c0.2 1.3-0.4 2.4-0.6 3.6zM311.8 469.6c0 112.4 91.1 203.5 203.5 203.5S718.8 582 718.8 469.6s-91.1-203.5-203.5-203.5c-112.4 0.1-203.5 91.1-203.5 203.5z m173.6-242.4c9.8-1.2 19.7-2 29.9-2 10.1 0 20.1 0.8 29.9 2C679 214.10000000000002 787.1 113.79999999999995 812.3-16.100000000000023H218.5c25.2 129.9 133.1 230.2 266.9 243.3zM862.2 557.1h-14.9C839.5 732.5 691.9 830.3 511.5 830.3s-328-97.9-335.8-273.2H160c-14.9 0-27.1-12.1-27.1-27.1v-146.7c0-14.9 12.1-27.1 27.1-27.1h26.6c14.9 0 27.1 12.1 27.1 27.1v21.8c0.4 1.5 0.7 3.1 0.8 4.9 1.4 37.7 0.6 132.4 0.6 132.4 0 162.8 133 248.4 296.5 248.4C675 790.8 808 705.2 808 542.5c0 0 0.7-97.1-0.5-130.7-0.2-4.6 0.3-8.3 1.1-11.2v-17.1c0-14.9 12.1-27.1 27.1-27.1h26.6c14.9 0 27.1 12.1 27.1 27.1V530c-0.1 15-12.2 27.1-27.2 27.1z"  horiz-adv-x="1024" />

    
    <glyph glyph-name="shoucang" unicode="&#58887;" d="M915.462 401.587c63.141 64.703 43.57 127.903-43.649 141.226l-199.755 30.514-89.333 190.289c-39.023 83.124-102.246 83.086-141.252 0L352.14 573.327l-199.755-30.514c-87.258-13.329-106.762-76.552-43.649-141.226L253.28 253.46799999999996 219.158 44.32000000000005c-15.619-87.283 44.234-125.964 114.275-87.283l178.666 98.746 178.666-98.746c68.872-39.587 129.447 0 114.275 87.283l-13.386 82.05s-2.979 30.994-32.016 26.756c-29.037-4.238-26.047-29.487-24.576-38.507 4.123-25.274 12.272-70.258 12.272-70.258 4.954-30.363-11.798-43.5-37.996-29.021L512.721 124.00900000000001 316.103 15.341000000000008c-25.938-14.336-42.999-1.646-37.996 29.021l37.551 230.162-163.272 168.234c-20.984 21.503-20.689 37.249 8.601 41.723l229.942 33.58L493.761 732.69c13.177 30.925 28.657 27.902 41.756 0l98.994-214.629 229.55-33.58c29-4.43 28.945-20.005 7.751-41.723 0 0-92.155-96.631-136.751-142.33-8.277-8.481-22.066-25.731-3.34-46.96s43.018 4.224 43.018 4.224l140.723 143.895z"  horiz-adv-x="1024" />

    
    <glyph glyph-name="chaoshi" unicode="&#59256;" d="M339.559603 234.81014300000004l475.832266-1.222851 0.780783-0.002047 0.776689 0.047072c22.63451 1.360997 41.511439 15.766079 46.971801 35.848463l0.076748 0.276293 92.839455 378.837164c3.545756 13.490246 0.48914 27.631314-8.404414 38.84982-9.729595 12.271488-25.472138 19.597337-42.113143 19.597337L252.097622 707.041394 226.170113 809.879574 89.008196 809.879574c-13.33675 0-24.146956-10.510378-24.146956-23.477714 0-12.96529 10.810207-23.474644 24.146956-23.474644l99.278097 0 122.470309-485.764476c-37.965683-12.135388-65.462944-46.912449-65.462944-87.835488 0-27.365254 12.305257-51.974745 31.807427-68.915579-19.510356-16.942881-31.819706-41.566698-31.819706-68.938092 0-50.977022 42.657542-92.451622 95.091752-92.451622 52.42807 0 95.078449 41.4746 95.078449 92.451622 0 16.534582-4.50971 32.05609-12.360516 45.499263l333.898673 0c-7.853875-13.443174-12.360516-28.965705-12.360516-45.499263 0-50.977022 42.655496-92.451622 95.089705-92.451622 52.420907 0 95.066169 41.4746 95.066169 92.451622 0 50.979068-42.645263 92.449575-95.066169 92.449575L340.372108 143.92315599999995c-0.512676 0-1.019213-0.027629-1.533936-0.035816-25.089421 0.791016-45.252647 20.863167-45.252647 45.441958C293.587572 214.153684 314.13556 234.38444700000002 339.559603 234.81014300000004L339.559603 234.81014300000004zM906.316717 660.093129c1.769296 0 2.89084-0.532119 3.458775-0.942465l-92.498694-377.458771c-0.291642-0.289596-1.210571-0.948605-2.805906-1.151219l-455.137944 1.167592L263.935228 660.093129 906.316717 660.093129 906.316717 660.093129zM340.374154 5.974317000000042c-25.806759 0-46.798862 20.411889-46.798862 45.50131 0 24.588001 20.167319 44.668339 45.26595 45.459355 0.512676-0.008186 1.019213-0.035816 1.533936-0.035816 0.346901 0 0.680499 0.033769 1.027399 0.049119 25.323758-0.534166 45.759183-20.717857 45.759183-45.471634C387.160737 26.38415999999995 366.169657 5.974317000000042 340.374154 5.974317000000042L340.374154 5.974317000000042zM886.492206 51.47562800000003c0-25.089421-20.98187-45.50131-46.77328-45.50131-25.804712 0-46.796816 20.411889-46.796816 45.50131 0 25.087375 20.993127 45.497217 46.796816 45.497217C865.509313 96.97386800000004 886.492206 76.56402600000001 886.492206 51.47562800000003L886.492206 51.47562800000003z"  horiz-adv-x="1024" />

    
    <glyph glyph-name="pingjia" unicode="&#58970;" d="M1006.76605472 727.41122907c0 43.73468097-33.94279348 79.20761869-75.73696158 79.2076187H92.96831778c-41.83300425 0-75.73696158-35.47293772-75.73696157-79.2076187V146.51695408c0-43.72691374 33.90395733-79.19985147 75.73696157-79.19985147h317.72888432l101.30150336-105.93595038 101.2652563 105.93595038h317.76772046c41.79157902 0 75.73825612 35.47293772 75.73825611 79.19985147v94.66181657h-0.32234003c-0.86345703 13.7738872-11.53692507 24.72309191-24.92374534 24.72309191-13.38811481 0-24.05769923-10.95179378-24.92503989-24.72309191h-0.32104549v-68.24805768c0-29.1879544-22.59098738-52.82622325-50.49217075-52.82622325H588.01528731L512 40.62372346999996l-76.01917093 79.4820608H118.19110147c-27.8817653 0-50.47016359 23.63826883-50.4701636 52.82622323V700.9961756499999c0 29.11028211 22.5883983 52.81716148 50.4701636 52.81716147h787.5919063c27.9024779 0 50.49346528-23.70558483 50.49346528-52.81586693V450.15090569h0.52299346c-0.08026137-0.88675872-0.52299346-1.73209221-0.52299346-2.73794845 0-14.5752064 11.27154473-26.37233367 25.24349628-26.37233368 13.93182089 0 25.24737991 11.79842181 25.24737992 26.37233368 0 1.00715077-0.46085563 1.85248427-0.524288 2.73794845h0.524288V727.41122907h-0.00129453M761.19602821 372.35951186H284.66613413c-12.67870783 0-22.94439632-11.19516697-22.94439634-25.00530125 0-13.77000359 10.2656885-24.96387603 22.94439634-24.96387603h476.52989408c12.64504983 0 22.91073833 11.19387244 22.91073833 24.96387603 0 13.81013428-10.26698303 25.00530125-22.91073833 25.00530125m0 168.82850323H284.66613413c-12.67870783 0-22.94439632-11.15503629-22.94439634-25.00400672 0-13.76870907 10.2656885-24.96387603 22.94439634-24.96387602h476.52989408c12.64504983 0 22.91073833 11.19387244 22.91073833 24.96387602 0 13.84897043-10.26698303 25.00400672-22.91073833 25.00400672m0 0z"  horiz-adv-x="1024" />

    
    <glyph glyph-name="fabu1" unicode="&#58896;" d="M960 563.541333v-492.501333a134.954667 134.954667 0 0 0-135.253333-135.04H199.253333a135.04 135.04 0 0 0-135.253333 135.253333V696.746667c0 74.666667 60.586667 135.253333 135.296 135.253333h523.434667a21.333333 21.333333 0 1 1 0 42.666667H199.296A178.005333 178.005333 0 0 1 21.333333 696.746667v-625.493334a177.706667 177.706667 0 0 1 177.92-177.92h625.493334a177.621333 177.621333 0 0 1 177.92 177.706667V563.541333a21.333333 21.333333 0 1 1-42.666667 0zM527.104 368.89599999999996L1009.792 851.626667a21.333333 21.333333 0 0 1-30.165333 30.165333L496.896 399.104a21.333333 21.333333 0 0 1 30.208-30.208zM298.666667 170.66666699999996h426.666666a21.333333 21.333333 0 1 1 0 42.666666H298.666667a21.333333 21.333333 0 1 1 0-42.666666z"  horiz-adv-x="1024" />

    
    <glyph glyph-name="sousuo" unicode="&#58880;" d="M955.392-10.240000000000009l-151.04 161.792c61.44 74.24 94.72 168.448 94.72 265.216C899.072 646.656 711.68 834.56 480.768 834.56S62.464 646.656 62.464 416.256c0-230.912 187.904-418.304 418.304-418.304 60.416 0 118.784 12.8 173.056 37.376 8.704 4.096 14.848 10.752 17.92 19.456 3.072 8.704 2.56 17.92-1.024 26.112-4.096 8.704-10.752 14.848-19.456 17.92-8.704 3.072-17.92 3.072-26.112-1.024-45.568-20.48-94.208-31.232-144.896-31.232-192.512 0-349.184 156.672-349.184 349.184s156.672 349.184 349.184 349.184S829.44 608.256 829.44 415.744c0-90.624-34.816-176.64-97.28-242.176-6.144-6.656-9.728-15.36-9.728-24.576 0-9.216 4.096-17.92 10.752-24.576 0.512-0.512 1.536-1.024 2.048-1.536 0.512 0 0.512-0.512 1.024-0.512 0-0.512 0.512-0.512 0.512-1.024 0.512-1.024 1.024-2.048 2.048-3.072l165.376-177.152c6.656-7.168 15.872-10.752 25.088-10.752 8.704 0 16.896 3.072 23.552 9.216 6.656 6.144 10.752 14.848 11.264 24.064 1.024 10.24-2.56 18.944-8.704 26.112z"  horiz-adv-x="1024" />

    
    <glyph glyph-name="youxiang" unicode="&#58890;" d="M512.012041 265.46453399999996l415.548448 346.226152c-2.25174 0.409407-4.274694 1.348636-6.610724 1.348636L103.074318 613.039323c-2.287865 0-4.32286-0.927187-6.5746-1.348636L512.012041 265.46453399999996zM958.133584 575.855503c0 3.901411-1.071684 7.513829-2.25174 11.06604L661.313264 341.397554l295.014111-295.074318c0.758608 2.974224 1.806209 5.840075 1.806209 9.055127L958.133584 575.855503zM68.15428 586.957667c-1.143932-3.576294-2.287865-7.140546-2.287865-11.102164l0-520.465099c0-3.251176 1.119849-6.104986 1.854374-9.07921l295.110442 295.098401L68.15428 586.957667zM632.582502 317.507432l-108.697648-90.539229c-3.407714-2.901976-7.622201-4.298777-11.872813-4.298777-4.214487 0-8.453057 1.396802-11.896896 4.298777l-108.601317 90.491063L94.079398 20.036877000000004c2.926058-0.770649 5.828034-1.842333 8.99492-1.842333l817.887488 0c3.227093 0 6.129069 1.059643 9.115334 1.842333L632.582502 317.507432z"  horiz-adv-x="1024" />

    
    <glyph glyph-name="jinlingyingcaiwangtubiao29" unicode="&#58891;" d="M806.121-87.668c-2.594 0-5.188 0.492-7.674 1.502l-285.573 115.589-285.573-115.589c-6.554-2.649-14.009-1.721-19.715 2.403-5.734 4.15-8.902 10.95-8.411 18.022l21.681 307.309-198.164 235.847c-4.533 5.407-5.98 12.78-3.795 19.497 2.157 6.718 7.646 11.851 14.527 13.545l298.954 74.356 163.075 261.353c7.509 11.987 27.252 11.987 34.762 0l163.075-261.353 298.954-74.356c6.881-1.721 12.37-6.827 14.527-13.545 2.185-6.718 0.737-14.091-3.795-19.497l-198.164-235.847 21.681-307.309c0.518-7.045-2.676-13.844-8.411-18.022-3.468-2.566-7.7-3.905-11.961-3.905z"  horiz-adv-x="1024" />

    
    <glyph glyph-name="kefu" unicode="&#59002;" d="M515.2 102.39999999999998h16c51.2 6.4 92.8 38.4 108.8 83.2 0 3.2 0 6.4-3.2 9.6-3.2 0-6.4 0-9.6-3.2 0 0-19.2-28.8-99.2-38.4-9.6 0-22.4-3.2-35.2-3.2-54.4 0-80 19.2-80 19.2-3.2 3.2-6.4 3.2-9.6 0-3.2-3.2-3.2-6.4 0-9.6 25.6-35.2 67.2-57.6 112-57.6z m422.4 444.8C889.6 729.6 716.8 864 505.6 864 288 864 108.8 723.2 67.2 534.4 32 528 0 496 0 460.8v-150.4c0-41.6 38.4-76.8 83.2-76.8 28.8 0 48 9.6 64 28.8 38.4-86.4 112-160 204.8-195.2 0 0 3.2 3.2 3.2 6.4s3.2 3.2 3.2 3.2h3.2c-19.2 16-102.4 89.6-118.4 195.2-6.4 48 32 92.8 73.6 99.2 70.4 12.8 144 25.6 214.4 38.4 44.8 6.4 80 28.8 96 67.2 3.2 9.6 9.6 25.6 12.8 51.2 0 3.2 3.2 6.4 9.6 6.4 3.2 0 6.4 0 6.4-3.2h3.2c28.8-38.4 86.4-121.6 92.8-208 9.6-99.2 3.2-166.4-80-236.8v-6.4c0-3.2 0-3.2 3.2-6.4h3.2s3.2 0 3.2 3.2c86.4 41.6 150.4 112 182.4 198.4 12.8-16 32-28.8 54.4-32-35.2-147.2-182.4-240-358.4-252.8-9.6 25.6-38.4 41.6-67.2 41.6-41.6 0-70.4-28.8-70.4-64s35.2-64 70.4-64 60.8 19.2 67.2 44.8c208 16 371.2 128 406.4 300.8 38.4 9.6 57.6 35.2 57.6 67.2v150.4c0 48-38.4 80-86.4 80zM864 505.6c-54.4 131.2-195.2 227.2-358.4 227.2S201.6 640 147.2 505.6l-9.6 9.6c32 160 185.6 281.6 364.8 281.6 185.6 0 336-121.6 364.8-281.6 0-3.2-3.2-6.4-3.2-9.6zM352 60.799999999999955z"  horiz-adv-x="1024" />

    
    <glyph glyph-name="yuyan" unicode="&#59070;" d="M512 880.64c-273.92 0-496.64-222.72-496.64-496.64 0-111.104 35.84-216.064 103.424-303.104l2.048-3.072c0.512-1.536 1.536-2.56 3.072-3.584 94.72-118.784 236.544-186.88 388.096-186.88 154.112 0 296.448 69.632 391.168 190.976l0.512 0.512c1.024 0.512 1.536 2.048 2.048 3.072 67.072 87.552 102.4 192 102.4 302.08 0.512 273.92-222.208 496.64-496.128 496.64z m177.664-256c-16.896 63.488-40.448 127.488-70.144 191.488 95.744-24.064 181.76-79.36 243.2-157.696-55.296-14.848-113.152-26.112-173.056-33.792z m31.744-215.04c-1.536 54.784-8.192 110.08-19.456 165.376 66.048 8.704 130.56 22.016 191.488 39.936 37.376-61.952 59.392-132.608 63.488-205.312h-235.52z m-24.064-236.032c14.336 61.44 22.528 123.904 24.064 185.344h235.52c-4.608-79.872-30.208-156.16-74.752-222.72-58.88 16.384-121.344 29.184-184.832 37.376z m151.552-80.896C788.992 23.55200000000002 708.096-26.111999999999966 619.52-48.12800000000004c27.136 57.344 48.64 115.2 65.024 172.032 56.32-7.168 111.616-17.408 164.352-31.232z m-508.928 28.16c15.872-55.808 37.888-112.64 64-169.472-86.528 21.504-165.888 69.632-225.28 136.192 51.712 14.848 105.984 26.112 161.28 33.28z m46.08 500.224c17.92 66.56 43.52 134.144 77.312 205.824 32.256 3.584 65.536 3.584 97.792 0 34.304-72.192 59.392-140.288 77.824-207.36-83.968-7.168-169.984-6.656-252.928 1.536z m-32.256-211.456c1.536 53.248 8.192 107.52 19.968 161.28 90.624-9.728 185.344-10.24 276.992-2.048 11.264-53.248 17.92-107.008 19.456-159.232h-316.416z m316.416-51.2c-2.048-59.904-9.728-118.272-24.064-179.712-88.576 7.68-180.224 7.168-267.776-2.048-14.848 61.952-23.04 121.344-24.576 181.248h316.416z m-265.728 458.24c-29.696-62.976-52.736-126.464-69.632-188.928-58.88 8.192-115.712 20.48-169.472 36.352 60.928 75.264 145.408 129.024 239.104 152.576z m-101.888-458.24c1.536-61.952 10.24-125.44 24.576-187.904-62.976-9.216-123.904-22.528-181.76-39.936-46.592 67.072-73.216 145.92-78.336 227.328h235.52z m-235.52 51.2c4.096 74.752 27.136 146.944 67.072 210.432 59.904-18.944 123.392-32.768 188.928-42.496-11.776-55.808-18.432-112.128-20.48-167.936h-235.52z m565.76-281.088c-17.92-60.928-41.472-122.368-72.192-187.392-32.256-3.584-65.536-3.584-97.792 0-30.208 64.512-53.76 125.44-71.68 185.856 79.36 7.68 161.792 8.192 241.664 1.536z"  horiz-adv-x="1024" />

    
    <glyph glyph-name="phone" unicode="&#58966;" d="M375 553s-156.2-121.7 37-278.5c0 0 166.9-178.7 319.7-44.3 0 0 65 51.1 154.6-56.2 0 0 122.2-143.9-46.6-194.3 0 0-298.2-76.7-568.3 257.4 0 0-305.3 409.1-105.4 550.3 0 0 61 37.5 139.9-42.5 0-0.1 121.7-127.3 69.1-191.9z"  horiz-adv-x="1024" />

    
    <glyph glyph-name="saoyisao1" unicode="&#58885;" d="M945.231 176.601h78.769v-112.601c0-106.063-85.937-192-192-192h-112.601v78.769h112.601c62.425 0 113.231 50.767 113.231 113.231v112.601zM78.769 64v112.601h-78.769v-112.601c0-106.063 85.937-192 192-192h112.601v78.769h-112.601c-62.425 0-113.231 50.767-113.231 113.231zM78.769 704c0 62.464 50.806 113.231 113.231 113.231h112.601v78.769h-112.601c-106.063 0-192-85.937-192-192v-112.561h78.769v112.561zM0 345.049h1024v77.942h-1024v-77.942zM832 896h-112.601v-78.769h112.601c62.425 0 113.231-50.767 113.231-113.231v-112.561h78.769v112.561c0 106.063-85.937 192-192 192z"  horiz-adv-x="1024" />

    
    <glyph glyph-name="dizhi" unicode="&#58899;" d="M504.5 831.7c-177.6 0-291-143.3-291-320.9 0-177.6 247.7-432.8 291-432.8 43.3 0 291 255.2 291 432.8 0 177.6-113.4 320.9-291 320.9z m0-417.9c-70.1 0-126.8 56.7-126.8 126.8s56.7 126.8 126.8 126.8 126.9-56.7 126.9-126.8c0-70-56.7-126.8-126.9-126.8zM280.7 182.5c-106-22.4-171.6-58.2-171.6-111.9 0-83.6 179.1-134.3 402.9-134.3 223.9 0 402.9 50.7 402.9 134.3 0 55.2-70.1 92.5-183.6 114.9-16.4 3-31.3-7.5-34.3-23.9-3-16.4 7.5-31.3 23.9-34.3 85.1-16.4 135.8-43.3 135.8-56.7 0-3-4.5-7.5-16.4-16.4-16.4-10.4-40.3-20.9-71.6-29.8-67.2-19.4-158.2-29.8-255.2-29.8S324 5 258.3 24.399999999999977c-31.3 9-55.2 19.4-71.6 29.8-13.4 9-17.9 13.4-17.9 16.4 0 11.9 46.3 37.3 123.9 53.7 16.4 3 26.9 19.4 22.4 35.8-1.6 16.5-18 26.9-34.4 22.4z"  horiz-adv-x="1024" />

    
    <glyph glyph-name="guanbi" unicode="&#58932;" d="M515.072-98.304c-62.464 0-122.368 12.288-179.2 36.352-54.784 23.04-103.936 56.32-146.432 98.816s-75.776 91.648-98.816 146.432c-24.064 56.832-36.352 117.248-36.352 179.2 0 62.464 12.288 122.368 36.352 179.2 23.04 54.784 56.32 103.936 98.816 146.432s91.648 75.776 146.432 98.816c56.832 24.064 117.248 36.352 179.2 36.352 62.464 0 122.368-12.288 179.2-36.352 54.784-23.04 103.936-56.32 146.432-98.816s75.776-91.648 98.816-146.432c24.064-56.832 36.352-117.248 36.352-179.2 0-62.464-12.288-122.368-36.352-179.2-23.04-54.784-56.32-103.936-98.816-146.432s-91.648-75.776-146.432-98.816c-56.32-24.064-116.736-36.352-179.2-36.352z m0 884.736c-57.344 0-112.64-11.264-164.864-33.28-50.688-21.504-95.744-51.712-134.656-90.624-38.912-39.424-69.632-84.48-91.136-135.168-22.016-52.224-33.28-107.52-33.28-164.864 0-57.344 11.264-112.64 33.28-164.864 21.504-50.688 51.712-95.744 90.624-134.656 38.912-38.912 84.48-69.632 134.656-90.624 104.448-44.032 225.792-44.032 330.24 0 50.688 21.504 95.744 51.712 134.656 90.624 38.912 38.912 69.632 84.48 90.624 134.656 22.016 52.224 33.28 107.52 33.28 164.864 0 57.344-11.264 112.64-33.28 164.864-21.504 50.688-51.712 95.744-90.624 134.656S730.112 731.648 679.936 752.64c-52.224 22.528-107.52 33.792-164.864 33.792zM710.656 148.48c-4.608 0-9.216 2.048-12.8 5.632l-182.272 182.272L332.8 153.6c-7.168-7.168-18.944-7.168-26.112 0-7.168 7.168-7.168 18.944 0 26.112l182.272 182.272-182.272 182.784c-7.168 7.168-7.168 18.944 0 26.112 7.168 7.168 18.944 7.168 26.112 0l182.272-182.272 182.272 182.272c7.168 7.168 18.944 7.168 26.112 0s7.168-18.944 0-26.112l-182.272-182.272 182.272-182.272c7.168-7.168 7.168-18.944 0-26.112-3.584-4.096-8.192-5.632-12.8-5.632z"  horiz-adv-x="1024" />

    
    <glyph glyph-name="wudingdan" unicode="&#58912;" d="M64.252916-128H8.056289c-4.552482 0-7.58747 3.034988-7.58747 7.58747 0 4.564819 3.034988 7.58747 7.58747 7.58747h56.196627c4.564819 0 7.599807-3.034988 7.599807-7.58747S68.052819-128 64.252916-128z m1013.019759 0H1059.038072c-4.564819 0-7.599807 3.034988-7.599807 7.58747 0 4.564819 3.047325 7.58747 7.599807 7.58747h18.222265c4.564819 0 7.599807-3.034988 7.599808-7.58747s-3.047325-7.58747-7.599808-7.58747z m-63.043856 0H97.662458c-4.552482 0-7.58747 3.034988-7.58747 7.58747 0 4.564819 3.034988 7.58747 7.58747 7.58747h916.566361c4.564819 0 7.599807-3.034988 7.599808-7.58747s-3.034988-7.58747-7.599808-7.58747z m-457.135807 75.887036H279.92212a37.591904 37.591904 0 0 0-37.974361 37.949687v300.537831c0 4.552482 3.034988 7.58747 7.58747 7.58747 4.564819 0 7.599807-3.034988 7.599807-7.58747v-300.537831c0-12.904867 9.86988-22.76241 22.787084-22.76241h277.170892c4.552482 0 7.58747-3.034988 7.58747-7.58747 0-4.564819-3.034988-7.599807-7.58747-7.599807z m-307.557783 355.93253c-4.552482 0-7.58747 3.047325-7.58747 7.599807v45.52482c0 4.564819 3.034988 7.599807 7.58747 7.599807 4.564819 0 7.599807-3.034988 7.599807-7.58747v-45.537157a7.612145 7.612145 0 0 0-7.599807-7.587469z m607.503422 9.117301c-4.552482 0-7.58747 3.034988-7.58747 7.58747v371.10747c0 12.904867-9.86988 22.774747-22.787085 22.774747H279.934458c-4.564819 0-7.599807 3.034988-7.599807 7.58747 0 4.564819 3.034988 7.58747 7.599807 7.58747h546.741976a37.591904 37.591904 0 0 0 37.974361-37.937349v-371.119808a7.612145 7.612145 0 0 0-7.599807-7.58747z m-607.491085 107.766747c-4.564819 0-7.599807 3.034988-7.599807 7.58747V691.644145c0 4.552482 3.034988 7.58747 7.58747 7.587469 4.564819 0 7.599807-3.034988 7.599807-7.587469V428.291084a7.612145 7.612145 0 0 0-7.599807-7.58747z m254.396145-222.368385H363.433639c-4.564819 0-7.58747 3.034988-7.58747 7.58747 0 4.564819 3.034988 7.58747 7.58747 7.58747h140.485397c4.564819 0 7.599807-3.034988 7.599807-7.58747s-3.799904-7.58747-7.599807-7.58747z m86.558843 144.19894H363.445976c-4.564819 0-7.58747 3.034988-7.58747 7.58747 0 4.564819 3.034988 7.58747 7.58747 7.587469h227.056578c4.564819 0 7.58747-3.034988 7.58747-7.587469s-3.787566-7.58747-7.58747-7.58747zM731.728193 463.946024h-12.139952c-4.564819 0-7.599807 3.034988-7.599807 7.58747 0 4.564819 3.034988 7.599807 7.599807 7.599807h12.139952c4.564819 0 7.599807-3.047325 7.599807-7.599807s-3.799904-7.58747-7.599807-7.58747z m-34.914699 0h-44.044337c-4.564819 0-7.599807 3.034988-7.599808 7.58747 0 4.564819 3.034988 7.599807 7.58747 7.599807h44.044338c4.564819 0 7.599807-3.047325 7.599807-7.599807s-3.799904-7.58747-7.599807-7.58747z m-74.431229 0H363.458313c-4.564819 0-7.58747 3.034988-7.58747 7.58747 0 4.564819 3.034988 7.599807 7.58747 7.599807h258.960964c4.540145 0 7.58747-3.047325 7.58747-7.599807s-3.047325-7.58747-7.599807-7.58747z m165.542554-364.284916c4.564819 0 7.599807-3.034988 7.599808-7.587469s-3.034988-7.58747-7.599808-7.58747h-82.771277c-4.564819 0-7.58747 3.034988-7.58747 7.58747v91.074313c0 4.552482 3.034988 7.58747 7.58747 7.58747 4.564819 0 7.599807-3.034988 7.599807-7.58747v-83.486844h75.17147z m-670.534939 576.030844l-12.139952 6.069976 6.069976 11.387373c1.517494 3.034988 0.764916 6.822554-3.034988 9.104964-3.034988 1.517494-6.834892 0.752578-9.117302-3.034988l-6.069975-11.387373-12.904868 6.834891c-3.047325 1.517494-6.834892 0.752578-9.117301-3.034988-1.517494-3.034988-0.764916-6.834892 3.034988-9.117301l12.917205-6.822554-6.082314-12.139952c-1.517494-3.047325-0.752578-6.834892 3.034988-9.117301 3.047325-1.517494 6.834892-0.752578 9.117302 3.034988l6.069975 12.152289 11.399711-6.069976c3.034988-1.517494 6.834892-0.764916 9.104964 3.034988a7.242024 7.242024 0 0 1-2.270072 9.104964z m856.582168-220.838554l-18.222265 8.340048c-4.564819 2.270072-9.86988 0-12.152289-4.564819-2.270072-4.540145 0-9.857542 4.564819-12.139952l18.222265-8.340048-7.599807-17.45735c-2.270072-4.564819 0-9.86988 4.564819-12.139952 4.552482-2.28241 9.86988 0 12.139952 4.552482l7.599807 17.45735 16.704771-7.599808c4.564819-2.270072 9.86988 0 12.15229 4.56482 2.270072 4.552482 0 9.86988-4.56482 12.139951l-16.704771 7.58747 6.834892 15.939856c2.28241 4.552482 0 9.86988-4.552482 12.139952-4.564819 2.270072-9.86988 0-12.152289-4.56482l-6.834892-15.91518z m4.564819 396.904867a16.038554 16.038554 0 0 1 15.939856 15.939855c0 8.352386-7.58747 15.939855-15.939856 15.939856-8.364723 0-15.952193-7.58747-15.952192-15.939856a16.038554 16.038554 0 0 1 15.952192-15.939855z m0-11.387373A27.216193 27.216193 0 0 0 951.209639 867.710458c0 15.17494 12.152289 27.314892 27.339566 27.314891 15.17494 0 26.574651-12.139952 26.57465-27.314891s-12.152289-27.327229-26.57465-27.327229zM720.353157-44.513157c-88.088675 0-159.472578 71.334554-159.472579 159.37388 0 88.026988 71.383904 159.37388 159.472579 159.373879 88.088675 0 159.472578-71.346892 159.472578-159.373879 0-88.039325-71.383904-159.37388-159.472578-159.37388z m0 303.560482c-79.736289 0-144.285301-64.499663-144.285302-144.186602 0-79.699277 64.549012-144.19894 144.285302-144.19894s144.285301 64.512 144.285301 144.19894c0 79.68694-64.549012 144.186602-144.285301 144.186602z"  horiz-adv-x="1085" />

    
    <glyph glyph-name="chevron-down" unicode="&#58904;" d="M285.724 508.786l-45.252-45.253 271.528-271.532 271.528 271.532-45.254 45.258-226.273-226.282z"  horiz-adv-x="1024" />

    
    <glyph glyph-name="fenlei" unicode="&#59130;" d="M47.8208 690.2784h263.0656c23.6544 0 42.7008 19.1488 42.7008 42.8032s-19.0464 42.7008-42.7008 42.7008h-263.0656c-23.552 0-42.7008-19.0464-42.7008-42.7008 0-23.552 19.1488-42.8032 42.7008-42.8032zM47.8208 308.8384h299.2128c23.552 0 42.7008 19.0464 42.7008 42.7008 0 23.552-19.1488 42.7008-42.7008 42.7008h-299.2128c-23.552 0-42.7008-19.1488-42.7008-42.7008 0-23.6544 19.1488-42.7008 42.7008-42.7008zM914.3296 22.937599999999975h-866.5088c-23.552 0-42.7008-19.0464-42.7008-42.7008s19.1488-42.8032 42.7008-42.8032h866.5088c23.552 0 42.7008 19.1488 42.7008 42.8032 0 23.6544-19.0464 42.7008-42.7008 42.7008zM1007.0016 280.47360000000003l-93.2864 97.5872c39.936 47.9232 63.8976 109.3632 63.8976 176.4352C977.7152 706.6623999999999 853.9136 830.4639999999999 701.6448 830.4639999999999S425.3696 706.6623999999999 425.3696 554.3936s123.904-276.0704 276.2752-276.0704c54.3744 0 105.0624 16.0768 147.8656 43.4176l95.8464-100.352c8.3968-8.8064 19.5584-13.1072 30.8224-13.1072 10.752 0 21.2992 3.7888 29.5936 11.8784 16.896 16.1792 17.6128 43.3152 1.2288 60.3136z m-305.3568 83.2512c-105.1648 0-190.6688 85.6064-190.6688 190.6688S596.48 745.0624 701.6448 745.0624C806.7072 745.0624 892.3136 659.5584 892.3136 554.3936 892.2112 449.3312 806.7072 363.72479999999996 701.6448 363.72479999999996z"  horiz-adv-x="1024" />

    
    <glyph glyph-name="tuangou1" unicode="&#58920;" d="M844.27776 803.84H169.48224C123.41248 803.84 84.48 764.91776 84.48 718.848v-669.696c0-46.06976 38.93248-84.992 85.00224-84.992h674.80064c46.06976 0 85.00736 38.92224 85.00736 84.992V718.848c-0.01024 46.06976-38.94272 84.992-85.01248 84.992z m33.81248-165.12V49.152c0-18.00192-16.74752-33.792-35.84-33.792h-672.768c-17.6896 0-33.79712 16.10752-33.79712 33.792V718.848c0 17.68448 16.10752 33.792 33.79712 33.792h672.768c19.09248 0 35.84-15.79008 35.84-33.792v-80.128zM783.36 545.50016h-120.32V667.94496a25.6 25.6 0 1 1-51.2 0v-122.4448H211.20512a25.6 25.6 0 0 1 0-51.2h365.29664L233.4208 151.2192A25.58976 25.58976 0 0 1 251.52512 107.52c6.5536 0 13.10208 2.49856 18.10432 7.5008l342.21568 342.2208v-362.624c0-14.14144 11.45856-25.6 25.6-25.6s25.6 11.45856 25.6 25.6V494.30016H783.36a25.6 25.6 0 1 1 0 51.2z"  horiz-adv-x="1024" />

    
    <glyph glyph-name="shangcheng1" unicode="&#58888;" d="M959.5 109.9l-12.2 409.8c0 15.1-6.3 27.6-20.4 27.6-11.8 0-25.1-12.5-24.3-27.6l12.4-402c3.2-82.4-50.9-136.7-124.2-136.7H234.2c-75.6 0-127.3 64.5-124.2 136.7l24.8 543.6c2.9 59.5 62.2 124.2 136.7 124.2h482c75.9 0 127.2-73.4 136.7-124.2 2.8-14.8 11.6-24.1 27-24.1 13.6 0 20.7 16.6 17.8 31.5-16.8 86.7-81.8 161.6-171.7 161.5H261.9c-90 0.1-164.2-69.5-168.5-158L65.5 109.9c-2.2-45.4 5.3-91.5 37.1-124.4 31.8-32.9 85.3-49.7 131.4-49.7h557c46.2 0 99.6 16.8 131.4 49.7 31.9 32.9 39.3 79 37.1 124.4zM313.7 606.6c0 27.4-22.2 49.7-49.7 49.7-27.4 0-49.7-22.2-49.7-49.7 0-18.8 10.4-35.1 25.8-43.6 22.2-133.3 134.4-229.7 272.3-229.7S762.5 429.7 784.7 563c15.4 8.4 25.8 24.8 25.8 43.6 0 27.4-22.2 49.7-49.7 49.7s-49.7-22.2-49.7-49.7c0-18 9.6-33.8 24-42.5C716 458.5 622.1 383 512.5 383 403 383 309 458.5 289.8 564.1c14.3 8.7 23.9 24.5 23.9 42.5z"  horiz-adv-x="1024" />

    
    <glyph glyph-name="mimabukeshi" unicode="&#58893;" d="M2708.461652 458.420402l-137.170484 184.625061c37.487697 29.479026 74.804551 60.490649 112.207326 93.12179 18.74285 15.505812 28.029352 37.231931 29.562949 62.025245a92.099725 92.099725 0 0 1-21.810043 65.176361 93.804166 93.804166 0 0 1-66.966723 31.011623c-21.810043 0-42.002566-7.666984-59.212818-21.725121-299.046361-262.155118-612.065936-425.140979-928.237626-485.631628-91.843959-17.039408-185.307436-26.325911-278.769915-26.325911-160.428202 0-322.391 26.411832-482.820201 77.530057-227.309003 73.015188-411.167765 186.244579-526.356363 266.927751C227.394925 792.058111 154.208893 864.902455 154.208893 866.436052A92.69518 92.69518 0 0 1 90.310362 894.381481c-23.344639 0-45.154682-9.285503-62.195089-24.792314-35.783257-34.078817-35.783257-91.503271-1.533596-125.668009 1.533597-1.532598 49.841393-51.203147 138.618159-120.981297L45.155681 467.791827a91.418349 91.418349 0 0 1-18.743849-66.709958c3.152116-23.258717 15.675656-44.984837 34.334583-58.957052a90.991739 90.991739 0 0 1 126.094618 15.505812L311.484979 517.3764550000001a2221.125583 2221.125583 0 0 1 373.76599-198.512353l-80.938938-172.271365c-9.371425-21.725121-10.905021-46.517435-3.152116-68.158632 7.837828-21.810043 24.963158-40.384047 46.7742-49.756471 12.438618-4.60079 24.877236-7.666984 37.315855-7.666985 34.250659 0 66.966723 20.106602 80.938937 51.118225l87.329091 187.778176c136.998641-41.917644 277.150397-66.710957 414.234959-72.930266V-37.945403000000056c0-49.67055 40.468969-90.054597 90.310362-90.054597s90.310362 40.384047 90.310363 89.969674v224.924186c73.270954 4.685712 147.989584 12.438618 219.642018 26.411832a1924.975572 1924.975572 0 0 1 238.299947 62.109168l91.843959-190.845369c15.591733-31.011623 46.7742-51.203147 81.02386-51.203148 14.057137 0 26.411832 3.067193 38.936372 9.371425 21.810043 10.820099 37.401776 27.859507 45.154681 51.119224a93.718244 93.718244 0 0 1-3.067193 68.243555l-85.709572 178.406751c119.960232 52.821666 238.299946 120.981297 355.107063 200.216793l137.084562-184.62606c17.040407-23.344639 43.622084-35.783257 71.567513-35.783257 18.74285 0 37.486698 6.304231 52.993509 17.124331 18.74285 13.973214 31.181468 35.698335 35.783257 58.958051a93.889088 93.889088 0 0 1-18.658927 62.024246z"  horiz-adv-x="2729" />

    
    <glyph glyph-name="mimakeshi" unicode="&#58894;" d="M819.2 896c510.669 0 819.2-519.936 819.2-519.936S1281.997-128 819.2-128 0 376.06399999999996 0 376.06399999999996 308.531 896 819.2 896zM140.595 364.18600000000004a1522.944 1522.944 0 0 1 162.15-162.304C469.556 58.879999999999995 645.275-25.446000000000026 819.2-25.446000000000026c173.926 0 349.645 84.326 516.454 227.328a1522.944 1522.944 0 0 1 175.924 178.585A1261.107 1261.107 0 0 1 1350.81 560.5899999999999c-158.823 146.483-337.255 232.857-531.61 232.857-194.355 0-372.736-86.374-531.61-232.857a1261.107 1261.107 0 0 1-160.768-180.122c4.301-5.171 8.91-10.598 13.824-16.281z m672.666 326.656c164.557 0 300.749-135.834 300.749-299.93a298.7 298.7 0 0 0-300.75-299.98c-164.505 0-300.697 130.2-300.697 299.98a298.7 298.7 0 0 0 300.698 299.93z"  horiz-adv-x="1638" />

    
    <glyph glyph-name="shui" unicode="&#58895;" d="M655.36 411.136V465.92c0 6.656-6.656 13.824-13.824 13.824h-116.224c-6.656 0-13.824-6.656-13.824-13.824v-54.784c0-6.656 6.656-13.824 13.824-13.824h116.224c7.168 0.512 13.824 7.168 13.824 13.824zM962.56 486.4c13.824 0 27.136 13.824 27.136 27.136v163.84c0 34.304-27.136 54.784-54.784 54.784H88.576c-34.304 0-54.784-27.136-54.784-54.784v-163.84c0-13.824 13.824-20.48 27.136-20.48 47.616-13.824 81.92-61.44 81.92-109.056s-34.304-95.744-81.92-102.4c-13.824 0-27.136-13.824-27.136-27.136v-163.84C34.304 56.32000000000005 61.44 35.84000000000003 88.576 35.84000000000003h846.336c34.304 0 54.784 27.136 54.784 40.96v163.84c0 13.824-13.824 27.136-27.136 27.136-47.616 13.824-81.92 61.44-81.92 109.056 0 54.784 34.304 95.744 81.92 109.568zM505.344 574.976c0 6.656 0 6.656 6.656 13.824h6.656c6.656 0 6.656 0 13.824-6.656 13.824-13.824 20.48-27.136 27.136-40.96v-6.656c0-6.656 0-13.824-6.656-13.824h-6.656c-13.824 0-13.824 0-20.48 6.656l-20.48 40.96v6.656z m-81.92-354.816c0-6.656-6.656-13.824-13.824-13.824s-13.824 6.656-13.824 13.824v136.704c0 13.824 0 34.304 6.656 61.44-20.48-40.96-34.304-75.264-61.44-102.4 0-6.656-6.656-6.656-13.824-6.656 0 0-6.656 0-6.656 6.656 0 0-6.656 0-6.656 6.656s0 6.656 6.656 13.824c27.136 34.304 47.616 75.264 68.096 122.88H334.336c-6.656 0-13.824 6.656-13.824 13.824 0 6.656 6.656 13.824 13.824 13.824H389.12v47.616c-13.824 0-27.136 0-40.96-6.656-6.656 0-13.824 6.656-13.824 13.824 0 6.656 6.656 13.824 13.824 13.824 34.304 6.656 68.096 13.824 102.4 34.304h6.656c6.656 0 13.824 0 13.824-6.656v-6.656c0-6.656 0-6.656-6.656-13.824-13.824-6.656-27.136-13.824-40.96-13.824v-61.44h34.304c6.656 0 13.824-6.656 13.824-13.824 0-6.656-6.656-13.824-13.824-13.824h-34.304C436.736 424.96 450.56 404.48 471.04 384c0-6.656 6.656-6.656 6.656-13.824 0-6.656 0-6.656-6.656-6.656l-6.656-6.656c-6.656 0-6.656 0-13.824 6.656-13.824 13.824-27.136 34.304-34.304 61.44 0-27.136 6.656-47.616 6.656-61.44v-143.36z m279.552 6.656c-6.656-6.656-13.824-13.824-20.48-13.824h-40.96c-13.824 0-27.136 0-34.304 6.656-6.656 6.656-6.656 13.824-6.656 27.136v122.88h-40.96c0-34.304-6.656-61.44-13.824-81.92-13.824-27.136-34.304-54.784-68.096-75.264h-13.824c-6.656 0-6.656 0-13.824 6.656v13.824c0 6.656 0 6.656 6.656 13.824 27.136 13.824 40.96 34.304 54.784 47.616 13.824 20.48 20.48 47.616 20.48 81.92h-13.824c-27.136-6.656-40.96 6.656-40.96 27.136V472.576c0 20.48 13.824 34.304 34.304 34.304h81.92c13.824 20.48 27.136 47.616 34.304 75.264C634.88 588.8 634.88 588.8 641.536 588.8h6.656c6.656 0 13.824-6.656 13.824-13.824V568.3199999999999c-6.656-20.48-20.48-40.96-34.304-68.096h27.136c20.48 0 34.304-13.824 34.304-34.304v-68.096c0-20.48-13.824-34.304-34.304-34.304h-27.136v-116.224c0-6.656 0-6.656 6.656-13.824 6.656-6.656 6.656 0 20.48 0s20.48 0 27.136 6.656c6.656 6.656 6.656 20.48 6.656 40.96 0 6.656 6.656 13.824 13.824 13.824s13.824-6.656 13.824-13.824c0.512-26.624-6.144-47.104-13.312-54.272z"  horiz-adv-x="1024" />

    
    <glyph glyph-name="erweima" unicode="&#58897;" d="M62.996776 411.938306l423.162696 0L486.159472 835.099978 62.996776 835.099978 62.996776 411.938306zM168.788218 729.30956l211.580836 0 0-211.580836L168.788218 517.728724 168.788218 729.30956zM539.055193 835.099978l0-423.162696 423.162696 0L962.217888 835.099978 539.055193 835.099978zM856.426447 517.728724L644.845611 517.728724 644.845611 729.30956l211.580836 0L856.426447 517.728724zM221.682915 570.623421l105.790418 0L327.473333 676.414863 221.682915 676.414863 221.682915 570.623421zM62.996776-64.12011099999995l423.162696 0L486.159472 359.04258500000003 62.996776 359.04258500000003 62.996776-64.12011099999995zM168.788218 253.252167l211.580836 0 0-211.580836L168.788218 41.67133100000001 168.788218 253.252167zM803.531749 676.414863L697.740308 676.414863l0-105.790418 105.790418 0L803.530726 676.414863zM539.055193-64.12011099999995l105.790418 0L644.845611 41.67030799999998 539.055193 41.67030799999998 539.055193-64.12011099999995zM644.845611 253.252167l0-211.580836 105.790418 0L750.636029 253.252167 644.845611 253.252167zM856.426447 41.67030799999998L750.636029 41.67030799999998 750.636029-64.12011099999995l211.580836 0L962.216865 147.46174900000005 856.426447 147.46174900000005 856.426447 41.67030799999998zM856.426447 253.252167l105.790418 0L962.216865 359.04258500000003 856.426447 359.04258500000003 856.426447 253.252167zM539.055193 359.04258500000003l0-105.790418 105.790418 0L644.845611 359.04258500000003 539.055193 359.04258500000003zM221.682915 94.56602799999996l105.790418 0L327.473333 200.356446 221.682915 200.356446 221.682915 94.56602799999996z"  horiz-adv-x="1024" />

    
    <glyph glyph-name="chaoshishj-icon-Super" unicode="&#59007;" d="M523.636364 719.1272730000001l-93.090909-116.363637c-6.981818-9.309091-6.981818-25.6 4.654545-32.581818 4.654545-2.327273 9.309091-4.654545 13.963636-4.654545 6.981818 0 13.963636 2.327273 18.618182 9.309091l93.090909 116.363636c6.981818 9.309091 6.981818 25.6-4.654545 32.581818-11.636364 6.981818-25.6 4.654545-32.581818-4.654545zM337.454545 695.854545l-93.090909-116.363636c-6.981818-9.309091-6.981818-25.6 4.654546-32.581818 4.654545-2.327273 9.309091-4.654545 13.963636-4.654546 6.981818 0 13.963636 2.327273 18.618182 9.309091l93.090909 116.363637c6.981818 9.309091 6.981818 25.6-4.654545 32.581818-11.636364 6.981818-25.6 4.654545-32.581819-4.654546zM977.454545 500.363636c0 18.618182-2.327273 37.236364-9.30909 53.527273l-81.454546 195.490909c-23.272727 53.527273-74.472727 88.436364-132.654545 88.436364H269.963636C211.781818 837.818182 160.581818 802.909091 137.309091 749.3818180000001l-81.454546-190.836363-2.327272-4.654546c-4.654545-16.290909-6.981818-34.909091-6.981818-53.527273 0-55.854545 25.6-104.727273 67.490909-137.309091v-325.818181c0-58.181818 46.545455-104.727273 104.727272-104.727273h588.8c27.927273 0 53.527273 11.636364 74.472728 30.254545 18.618182 20.945455 30.254545 46.545455 30.254545 74.472728V360.72727299999997v2.327272c39.563636 30.254545 65.163636 81.454545 65.163636 137.309091zM698.181818-23.27272700000003H553.890909v123.345454c0 39.563636 30.254545 69.818182 69.818182 69.818182h4.654545c39.563636 0 69.818182-30.254545 69.818182-69.818182v-123.345454z m146.618182 18.618182c-11.636364-11.636364-25.6-16.290909-39.563636-16.29091H744.727273v123.345455c0 65.163636-51.2 116.363636-116.363637 116.363636h-4.654545c-65.163636 0-116.363636-51.2-116.363636-116.363636v-123.345455H218.763636c-32.581818 0-58.181818 25.6-58.181818 58.181819v302.545454c16.290909-4.654545 32.581818-6.981818 48.872727-6.981818h4.654546c53.527273 2.327273 104.727273 30.254545 134.981818 81.454545l2.327273 4.654546c2.327273 2.327273 2.327273 4.654545 2.327273 6.981818h11.636363s2.327273-2.327273 2.327273-4.654545v-2.327273c25.6-51.2 74.472727-83.781818 130.327273-83.781818 58.181818 0 114.036364 30.254545 148.945454 81.454545l2.327273 2.327273c2.327273 2.327273 2.327273 4.654545 4.654545 6.981818h4.654546c4.654545 0 4.654545 0 4.654545-2.327273s2.327273-2.327273 4.654546-6.981818l2.327272-4.654545c30.254545-51.2 83.781818-81.454545 139.636364-81.454546 18.618182 0 34.909091 2.327273 51.2 6.981818v-302.545454c2.327273-13.963636-4.654545-30.254545-16.290909-39.563636z m23.272727 395.636363c-16.290909-9.309091-34.909091-13.963636-58.181818-13.963636-39.563636 0-76.8 23.272727-100.072727 58.181818-2.327273 4.654545-4.654545 11.636364-11.636364 16.290909-6.981818 6.981818-18.618182 18.618182-39.563636 18.618182-16.290909 0-32.581818-6.981818-39.563637-18.618182-4.654545-4.654545-6.981818-11.636364-9.30909-16.290909-25.6-37.236364-65.163636-58.181818-109.381819-58.181818-37.236364 0-72.145455 20.945455-88.436363 55.854545v2.327273c0 2.327273-2.327273 4.654545-4.654546 6.981818l-4.654545 6.981818c-9.309091 11.636364-25.6 18.618182-41.890909 18.618182-6.981818 0-27.927273-2.327273-39.563637-16.290909-4.654545-6.981818-9.309091-13.963636-11.636363-16.290909-23.272727-34.909091-58.181818-58.181818-97.745455-58.181818-20.945455 0-39.563636 2.327273-55.854545 11.636363h-4.654546C116.363636 411.927273 93.090909 453.818182 93.090909 500.363636c0 13.963636 2.327273 27.927273 6.981818 39.563637 0 0 0 2.327273 2.327273 4.654545L181.527273 733.090909c16.290909 37.236364 51.2 60.509091 88.436363 60.509091h486.4c39.563636 0 74.472727-23.272727 88.436364-60.509091l79.127273-186.181818v-2.327273c4.654545-13.963636 6.981818-25.6 6.981818-39.563636 0-48.872727-23.272727-90.763636-62.836364-114.036364z"  horiz-adv-x="1024" />

    
    <glyph glyph-name="shoucang1" unicode="&#58909;" d="M727.908848 847.592727c-85.488485 0-164.770909-43.008-217.398303-113.788121-52.099879 70.749091-131.909818 113.788121-217.398303 113.788121-153.972364 0-279.117576-136.998788-279.117575-305.120969 0-100.196848 44.714667-170.97697 80.95806-227.576243 104.727273-164.739879 368.515879-369.105455 379.87297-377.607757a57.157818 57.157818 0 0 1 71.307636 0c11.29503 8.502303 274.556121 213.426424 379.87297 377.607757 36.212364 56.599273 80.92703 127.379394 80.92703 227.576243 0.062061 168.153212-125.052121 305.12097-279.024485 305.120969z m126.200243-530.990545c-96.783515-135.881697-301.707636-290.971152-311.916606-298.325334-9.619394-7.354182-20.945455-11.326061-31.68194-11.32606-11.326061 0-22.062545 3.382303-31.712969 11.32606-10.20897 7.354182-211.161212 164.150303-311.916606 303.972849-32.271515 50.982788-83.781818 114.377697-83.781818 203.80703 0 150.590061 83.781818 256.465455 221.339151 256.465455 76.427636 0 159.650909-73.045333 206.072242-136.440243 46.979879 63.394909 129.644606 136.440242 206.072243 136.440243 138.115879 0 227.576242-105.875394 227.576242-256.465455 0-89.429333-57.188848-159.092364-90.049939-209.454545z"  horiz-adv-x="1024" />

    
    <glyph glyph-name="category" unicode="&#58901;" d="M352.903955 896h-231.41243C52.067797 896 0 843.932203 0 780.293785v-231.412429c0-63.638418 52.067797-115.706215 115.706215-115.706215h231.412429c63.638418 0 115.706215 52.067797 115.706215 115.706215V780.293785c5.785311 63.638418-46.282486 115.706215-109.920904 115.706215z m46.282486-341.333333c0-34.711864-28.926554-57.853107-57.853108-57.853108H133.062147c-34.711864 0-57.853107 28.926554-57.853107 57.853108V768.723164c0 34.711864 28.926554 57.853107 57.853107 57.853107h208.271186c34.711864 0 57.853107-28.926554 57.853108-57.853107v-214.056497zM902.508475 896h-231.41243c-63.638418 0-115.706215-52.067797-115.706214-115.706215v-231.412429c0-63.638418 52.067797-115.706215 115.706214-115.706215h231.41243c63.638418 0 115.706215 52.067797 115.706214 115.706215V780.293785c5.785311 63.638418-52.067797 115.706215-115.706214 115.706215z m52.067796-341.333333c0-34.711864-28.926554-57.853107-57.853107-57.853108h-208.271187c-34.711864 0-57.853107 28.926554-57.853107 57.853108V768.723164c0 34.711864 28.926554 57.853107 57.853107 57.853107h208.271187c34.711864 0 57.853107-28.926554 57.853107-57.853107v-214.056497zM352.903955 340.61016900000004h-231.41243c-63.638418 0-115.706215-52.067797-115.706214-115.706214v-231.41243c0-63.638418 52.067797-115.706215 115.706214-115.706214h231.41243c63.638418 0 115.706215 52.067797 115.706214 115.706214v231.41243c0 63.638418-52.067797 115.706215-115.706214 115.706214z m46.282486-341.333333c0-34.711864-28.926554-57.853107-57.853108-57.853107H133.062147c-34.711864 0-57.853107 28.926554-57.853107 57.853107v208.271187c0 34.711864 28.926554 57.853107 57.853107 57.853107h208.271186c34.711864 0 57.853107-28.926554 57.853108-57.853107v-208.271187zM902.508475 340.61016900000004h-231.41243c-63.638418 0-115.706215-52.067797-115.706214-115.706214v-231.41243c0-63.638418 52.067797-115.706215 115.706214-115.706214h231.41243c63.638418 0 115.706215 52.067797 115.706214 115.706214v231.41243c5.785311 63.638418-52.067797 115.706215-115.706214 115.706214z m52.067796-341.333333c0-34.711864-28.926554-57.853107-57.853107-57.853107h-208.271187c-34.711864 0-57.853107 28.926554-57.853107 57.853107v208.271187c0 34.711864 28.926554 57.853107 57.853107 57.853107h208.271187c34.711864 0 57.853107-28.926554 57.853107-57.853107v-208.271187z"  horiz-adv-x="1024" />

    
    <glyph glyph-name="shanchu1" unicode="&#59443;" d="M911.104-39.80799999999999c-8.32 0-16.64 3.2-22.976 9.536L105.472 752.384a32.448 32.448 0 1 0 45.952 45.888l782.656-782.656a32.576 32.576 0 0 0-22.976-55.424M128.448-39.80799999999999a32.448 32.448 0 0 0-22.976 55.424L888.128 798.272a32.576 32.576 0 0 0 46.016-45.888L151.424-30.272000000000048a32.448 32.448 0 0 0-22.976-9.536"  horiz-adv-x="1024" />

    
    <glyph glyph-name="qiugouguanli" unicode="&#58914;" d="M348.16 73.386667c-34.133333 0-61.44-27.306667-61.44-61.44s27.306667-61.44 61.44-61.44S409.6-22.186667 409.6 11.946667s-27.306667 61.44-61.44 61.44z m0-68.266667c-3.413333 0-6.826667 3.413333-6.826667 6.826667s3.413333 6.826667 6.826667 6.826666 6.826667-3.413333 6.826667-6.826666-3.413333-6.826667-6.826667-6.826667z m450.56 68.266667c-34.133333 0-61.44-27.306667-61.44-61.44s27.306667-61.44 61.44-61.44 61.44 27.306667 61.44 61.44-27.306667 61.44-61.44 61.44z m0-68.266667c-3.413333 0-6.826667 3.413333-6.826667 6.826667s3.413333 6.826667 6.826667 6.826666 6.826667-3.413333 6.826667-6.826666-3.413333-6.826667-6.826667-6.826667z m78.506667 665.6h-157.013334c-3.413333-20.48-6.826667-37.546667-17.066666-54.613333h170.666666c6.826667 0 13.653333-6.826667 13.653334-13.653334l-47.786667-300.373333c-3.413333-10.24-10.24-20.48-27.306667-20.48H307.2c-13.653333 92.16-37.546667 228.693333-54.613333 334.506667h194.56c-6.826667 17.066667-13.653333 34.133333-13.653334 54.613333h-187.733333c-10.24 51.2-13.653333 81.92-13.653333 88.746667-3.413333 23.893333-17.066667 40.96-34.133334 51.2-17.066667 6.826667-27.306667 6.826667-30.72 6.826666h-61.44c-13.653333 0-27.306667-13.653333-27.306666-27.306666s13.653333-27.306667 27.306666-27.306667h61.44s3.413333 0 6.826667-3.413333c0 0 3.413333-3.413333 3.413333-10.24 3.413333-30.72 88.746667-549.546667 95.573334-583.68 0-6.826667 3.413333-17.066667 10.24-30.72 10.24-13.653333 30.72-30.72 68.266666-30.72h505.173334c13.653333 0 27.306667 13.653333 27.306666 27.306666s-13.653333 27.306667-27.306666 27.306667H351.573333c-6.826667 0-17.066667 0-23.893333 6.826667-3.413333 3.413333-3.413333 6.826667-3.413333 6.826666v3.413334s-3.413333 20.48-10.24 51.2h501.76c40.96 0 71.68 23.893333 81.92 61.44v3.413333l47.786666 307.2v3.413333c0 40.96-30.72 68.266667-68.266666 68.266667zM576.853333 438.613333c-17.066667 0-34.133333 13.653333-34.133333 34.133334s13.653333 34.133333 34.133333 34.133333c17.066667 0 34.133333-13.653333 34.133334-34.133333s-13.653333-34.133333-34.133334-34.133334zM665.6 626.346667c-6.826667-10.24-20.48-23.893333-40.96-40.96-10.24-10.24-17.066667-17.066667-20.48-23.893334-3.413333-3.413333-3.413333-17.066667-3.413333-30.72H552.96v13.653334c0 17.066667 3.413333 27.306667 6.826667 37.546666 3.413333 10.24 17.066667 20.48 30.72 34.133334s23.893333 17.066667 27.306666 23.893333c3.413333 6.826667 6.826667 13.653333 6.826667 20.48 0 10.24-6.826667 17.066667-13.653333 23.893333-6.826667 6.826667-20.48 10.24-34.133334 10.24s-23.893333-3.413333-34.133333-10.24c-10.24-6.826667-17.066667-23.893333-20.48-34.133333 0-10.24-47.786667-13.653333-47.786667 6.826667 0 20.48 10.24 40.96 27.306667 54.613333 17.066667 17.066667 40.96 23.893333 68.266667 23.893333 30.72 0 58.026667-6.826667 75.093333-20.48 13.653333-10.24 27.306667-37.546667 27.306667-54.613333 0-13.653333-3.413333-27.306667-6.826667-34.133333z"  horiz-adv-x="1024" />

    
    <glyph glyph-name="shangcheng_jiancai" unicode="&#58902;" d="M525.0048 747.60704a26.45504 26.45504 0 0 1-37.6832 0.39424 26.9312 26.9312 0 0 1-0.44544-37.87776l347.91424-356.79744a26.39872 26.39872 0 0 1 37.31968-0.80896l0.42496 0.4096a26.9312 26.9312 0 0 1 0.3328 37.87776L525.0048 747.60704z m480.19456-372.19328c0 25.65632-9.91744 49.81248-27.96032 67.97312L573.09184 850.0992a95.62624 95.62624 0 0 1-67.66592 27.12064c-25.78944 0-50.45248-9.856-67.62496-27.12064L291.328 702.97088c-37.28384-37.6576-37.31456-98.304-0.06656-135.9872l404.04992-406.55872a94.93504 94.93504 0 0 1 67.72736-28.11904c25.54368 0 49.56672 9.96352 67.61984 28.11904l43.63776 43.8016 33.74592-33.88928c16.1792-16.2816 17.12128-43.01312 2.0224-58.34752l-0.19456-0.24064-103.48032-88.97536a42.09664 42.09664 0 0 0-59.56096 0.0768c-0.04608 0.0256-0.08192 0.0768-0.11776 0.11264l-268.3136 269.94176a95.00672 95.00672 0 0 1-67.71712 28.1088 94.6176 94.6176 0 0 1-67.56864-28.01152l-15.94368-16.03072-71.80288 72.10496a26.38336 26.38336 0 0 1-35.4048 2.07872v-4.39296h-4.63872l-22.05696-22.14912-146.48832-147.07712c-37.28384-37.65248-37.30432-98.304-0.05632-135.9872l121.96864-122.67008c18.05824-18.1504 42.08128-28.10368 67.67104-28.10368 25.55904 0 49.58208 9.95328 67.68128 28.10368l145.9456 146.49344 0.30208 0.39936 24.61184 24.65792a27.01312 27.01312 0 0 1 0 37.87264l-110.03392 110.68416 15.872 15.98464a41.82016 41.82016 0 0 0 46.5152 9.10848v4.34688l16.86528-16.91136 2.3296-2.37568 262.54336-264.12032c18.19648-18.24768 42.46016-28.30848 68.36224-28.30848 24.99584 0 48.03072 9.36448 64.95232 26.43968l0.2048 0.24064 103.424 88.92928c37.0944 37.67296 37.02784 98.18112-0.1536 135.78752l-33.73056 33.87904 65.10592 65.36192a96.11264 96.11264 0 0 1 28.04224 68.06528zM418.37568 109.36832l-78.27456-78.57664-0.4096-0.4864-73.33376-73.58976a42.16832 42.16832 0 0 0-29.99296-12.43648 41.87648 41.87648 0 0 0-29.9776 12.43648l-121.96864 122.65984a42.8032 42.8032 0 0 0 0 60.23168l73.23136 73.52832 78.82752 79.11424 181.89824-182.88128z m521.07776 235.9552l-146.47808-147.01568a42.28096 42.28096 0 0 0-29.94176-12.19072 42.24 42.24 0 0 0-29.94176 12.19072L328.99072 604.87168a42.81344 42.81344 0 0 0 0 60.16512l146.49344 147.12832a41.97376 41.97376 0 0 0 29.93664 12.48256c11.33568 0 21.9904-4.44416 29.98272-12.48256l404.11136-406.60992a42.32704 42.32704 0 0 0 12.36992-30.08512 42.57792 42.57792 0 0 0-12.43136-30.14656z"  horiz-adv-x="1024" />

    
    <glyph glyph-name="zh" unicode="&#58886;" d="M225.57465256 580.91742636h572.85069488v-393.83485272H225.57465256zM549.95135854 436.2726259l-15.39536243-18.2596159 0.71606337 23.98812286-22.19796442 8.9507921 22.91402779 6.80260201 1.79015842 23.98812286 13.60520401-20.04977433 23.27205947 5.72850693-14.67929906-18.97567926 12.53110896-20.40780601-22.55599611 8.23472874zM490.51809894 504.29864592l-23.63009116-3.58031685 16.46945748 17.54355255-10.74095054 21.48190106 21.83993275-10.02488717 17.18552085 16.82748917-2.86425347-23.98812285 21.48190105-11.09898222-23.63009117-4.65441189-3.93834854-23.63009117-12.17307725 21.12386937z m9.66685548-219.11539079l-14.67929907-18.97567926v23.98812285l-22.55599609 8.23472874 22.91402778 7.51866535 1.07409506 23.98812286 14.32126738-19.33371095 23.27205948 6.44457031-14.67929906-18.97567926 13.24717231-20.04977432-22.91402779 7.16063368zM544.22285159 352.13518009999996l-21.83993275-10.02488717 10.74095054 21.48190107-16.46945749 17.54355253 23.63009116-3.58031685 11.8150456 21.12386937 3.93834852-23.63009116 23.63009116-4.65441189L558.54411896 358.93778210000005l2.86425347-23.98812284-17.18552084 17.18552084z m-165.76866983 17.18552085L318.66289048 326.35689881999997l22.19796442 70.17421014-59.43325958 44.03789716 73.75452696 0.71606337 23.27205948 69.81617844L402.08427292 441.28506949l73.75452695-0.71606336-59.43325957-43.67986549L438.60350472 326.71493051000004 378.45418176 369.32070094999995z"  horiz-adv-x="1024" />

    
    <glyph glyph-name="en" unicode="&#58898;" d="M260.25897198 557.0719567599999h503.48205604v-346.14391352H260.25897198zM260.25897198 557.0719567599999h503.48205604v-22.9713688H260.25897198V557.0719567599999z m-1e-8-46.2574139h503.48205605V487.84317407H260.25897198v22.97136879z m0-45.9427376h503.48205605v-22.97136882H260.25897198v22.97136882zM260.25897198 418.61439136h503.48205604v-22.9713688H260.25897198V418.61439136z m-1e-8-46.25741392h503.48205605V349.38560864H260.25897198v22.9713688z m0-45.94273759h503.48205605v-22.97136882H260.25897198v22.97136882zM260.25897198 280.15682592999997h503.48205604v-22.97136879H260.25897198V280.15682592999997z m-1e-8-46.25741389h503.48205605v-22.9713688H260.25897198v22.9713688zM260.25897198 557.0719567599999h220.27339953v-161.4289342H260.25897198zM292.04127678 524.66029942l-7.86690714-5.97884942 2.83208656 9.75496483-7.86690712 6.29352569h9.75496484l3.14676285 9.75496485 3.14676284-9.75496485h9.75496484l-7.86690713-6.29352569 2.83208657-9.75496483-7.86690712 5.97884941z m51.60691073-1e-8L335.78128037 518.68145l2.83208659 9.75496483-7.86690713 6.29352569h9.75496483l3.14676285 9.75496485 3.14676285-9.75496485h9.75496484l-7.86690713-6.29352569 2.83208656-9.75496484-7.86690712 5.97884942z m51.92158702 0l-7.8669071-5.97884941 2.83208655 9.75496483-7.86690713 6.29352569H392.42301168l3.14676286 9.75496485 3.14676286-9.75496485h9.75496482l-7.86690711-6.29352569 2.83208656-9.75496483-7.86690713 5.97884941z m51.60691075-0.94402887l-7.86690713-5.97884941 2.83208657 10.06964114-7.86690712 6.29352569 9.75496484 0.31467629 3.14676284 10.06964112 3.14676285-10.06964112 9.75496485-0.31467629-7.86690714-6.29352569 2.83208657-10.06964114-7.86690713 5.97884941z m-134.99612626-26.11813165L304.31365188 491.61928948l2.83208656 9.75496483-7.86690711 6.2935257h9.75496483l3.14676285 9.75496484 3.14676285-9.75496484h9.75496483l-7.86690712-6.2935257 2.83208656-9.75496484-7.86690712 5.97884942z m58.21511271 0l-7.86690711-5.97884942 2.83208656 9.75496484-7.86690714 6.2935257H367.24890889l3.14676284 9.75496484 3.14676286-9.75496484h9.75496483l-7.86690712-6.2935257 2.83208657-9.75496484-7.86690714 5.97884942z m57.90043645 0l-7.86690712-5.97884942 2.83208656 9.75496484-7.86690713 6.2935257h9.75496484l3.14676285 9.75496484 3.14676285-9.75496484h9.75496484l-7.86690713-6.2935257 2.83208656-9.75496484-7.86690712 5.97884942z m-136.25483141-27.37683679l-7.86690713-5.97884943 2.83208656 9.75496485-7.86690712 6.2935257h9.75496484l3.14676285 9.75496483 3.14676284-9.75496483h9.75496484l-7.86690713-6.2935257 2.83208657-9.75496485-7.86690712 5.97884943z m51.60691074 0L335.78128037 464.55712897l2.83208659 9.75496484-7.86690713 6.2935257h9.75496483l3.14676285 9.75496483 3.14676285-9.75496483h9.75496484l-7.86690713-6.2935257 2.83208656-9.75496484-7.86690712 5.66417313z m51.92158702 0l-7.8669071-5.97884943 2.83208655 9.75496485-7.86690713 6.2935257H392.42301168l3.14676286 9.75496483 3.14676286-9.75496483h9.75496482l-7.86690711-6.2935257 2.83208656-9.75496485-7.86690713 5.97884943z m51.60691075-0.62935258l-7.86690713-5.97884942 2.83208657 10.06964112-7.86690712 6.29352572 9.75496484 0.31467628 3.14676284 10.06964112 3.14676285-10.06964112 9.75496485-0.31467628-7.86690714-6.29352572 2.83208657-10.06964112-7.86690713 5.97884942z m-155.13540851-53.49496845l-7.86690713-5.9788494 2.83208656 9.75496481-7.86690712 6.2935257h9.75496484l3.14676285 9.75496484 3.14676284-9.75496484h9.75496484l-7.86690713-6.2935257 2.83208657-9.75496481-7.86690712 5.9788494z m51.60691074 0L335.78128037 410.11813167l2.83208659 9.75496481-7.86690713 6.2935257h9.75496483l3.14676285 9.75496484 3.14676285-9.75496484h9.75496484l-7.86690713-6.2935257 2.83208656-9.75496481-7.86690712 5.9788494z m51.92158702 0l-7.8669071-5.9788494 2.83208655 9.75496481-7.86690713 6.2935257H392.42301168l3.14676286 9.75496484 3.14676286-9.75496484h9.75496482l-7.86690711-6.2935257 2.83208656-9.75496481-7.86690713 5.9788494z m51.60691075-0.94402886L439.30977815 409.1741028l2.83208657 10.06964113-7.86690712 6.29352568 9.75496483 0.31467629 3.14676285 10.06964112 3.14676284-10.06964112 9.75496485-0.31467629-7.86690713-6.29352568 2.83208657-10.06964113-7.86690713 5.97884941z m-134.99612627 28.00618938L304.31365188 437.18029217l2.83208656 9.75496484-7.86690711 6.2935257h9.75496483l3.14676285 9.75496483 3.14676285-9.75496483h9.75496483l-7.86690712-6.2935257 2.83208656-9.75496484-7.86690712 5.97884942z m58.21511272 0l-7.86690711-5.97884942 2.83208656 9.75496484-7.86690714 6.2935257H367.24890889l3.14676284 9.75496482 3.14676286-9.75496482h9.75496483l-7.86690712-6.2935257 2.83208657-9.75496484-7.86690714 5.97884942z m57.90043645 0l-7.86690712-5.97884942 2.83208656 9.75496484-7.86690713 6.2935257h9.75496484l3.14676285 9.75496482 3.14676285-9.75496482h9.75496484L433.33092874 446.93525701l2.83208656-9.75496484-7.86690712 5.97884942z"  horiz-adv-x="1024" />

    
    <glyph glyph-name="zhankai" unicode="&#58947;" d="M755.34220143 462.11057914L537.77828128 224.19852490000005a34.23797325 34.23797325 0 0 0-25.71860934-11.63602973c-9.84587132 0-19.21436706 4.23670827-25.71860931 11.63602973L268.77714248 462.11057913c-10.62160664 11.21832611-13.90356374 27.56843969-8.41374461 42.00905095s18.73699148 24.52517037 34.13235392 25.89762517l434.94882448 0c15.45503437-1.31278283 28.76187863-11.33767 34.2516978-25.83795322 5.54949111-14.50028322 2.26753401-30.79072484-8.35407264-42.06872291z"  horiz-adv-x="1024" />

    


  </font>
</defs>
</svg>
